<?xml version="1.0" encoding="UTF-8"?>
<svg version="1.1" xmlns="http://www.w3.org/2000/svg" width="500" height="500">
<path d="M0 0 C0.91909149 0.00215515 1.83818298 0.0043103 2.78512573 0.00653076 C64.01163703 0.23625384 123.02957006 22.66553948 168.16015625 64.28515625 C170.12671378 66.08523272 172.14040802 67.7933807 174.1875 69.5 C185.78683031 79.6785288 195.36458285 91.8529212 204.375 104.3125 C204.8194043 104.92673828 205.26380859 105.54097656 205.72167969 106.17382812 C226.91548295 135.85492692 240.73830443 170.5447633 247.375 206.3125 C247.53726074 207.13878906 247.69952148 207.96507812 247.86669922 208.81640625 C253.01626373 235.98314907 252.69721769 267.20988599 247.375 294.3125 C247.21402832 295.18003906 247.05305664 296.04757812 246.88720703 296.94140625 C236.57118111 351.40526645 207.29324266 404.68894215 164.375 440.3125 C163.8584082 440.74288574 163.34181641 441.17327148 162.80957031 441.61669922 C117.04237967 479.55901083 60.68505183 500.82812564 1.125 500.6875 C0.21113525 500.68662384 -0.70272949 500.68574768 -1.64428711 500.68484497 C-27.17053648 500.60463833 -51.22187791 496.96295196 -75.625 489.3125 C-77.03289795 488.87212402 -77.03289795 488.87212402 -78.46923828 488.42285156 C-119.23102301 475.33917886 -160.05272404 449.5057335 -187.625 416.3125 C-188.43195313 415.39339844 -189.23890625 414.47429687 -190.0703125 413.52734375 C-225.94032191 372.52746729 -249.52486816 316.80339544 -249.828125 261.95703125 C-249.83509399 261.10079163 -249.84206299 260.244552 -249.84924316 259.36236572 C-249.86652393 256.61652643 -249.8729623 253.8708914 -249.875 251.125 C-249.87651062 249.71696609 -249.87651062 249.71696609 -249.87805176 248.28048706 C-249.86774216 234.07764804 -249.28818966 220.29711552 -246.625 206.3125 C-246.48578125 205.52085449 -246.3465625 204.72920898 -246.203125 203.91357422 C-240.44029578 171.31757145 -227.65168088 138.51063962 -208.625 111.3125 C-208.23908691 110.75965332 -207.85317383 110.20680664 -207.45556641 109.63720703 C-201.1154318 100.61684765 -194.29211982 92.11860045 -186.99023438 83.86132812 C-185.768277 82.47504457 -184.56269573 81.07436605 -183.359375 79.671875 C-172.22635032 66.88951333 -159.33475619 56.20888567 -145.625 46.3125 C-144.92955078 45.8086377 -144.23410156 45.30477539 -143.51757812 44.78564453 C-101.55633562 14.74209881 -51.33393361 -0.21787459 0 0 Z M12.375 44.3125 C10.68174135 48.93802419 8.9911409 53.56450794 7.30297852 58.19189453 C6.7285104 59.7654024 6.15332137 61.33864727 5.57739258 62.91162109 C4.7489076 65.1747647 3.92303389 67.43884658 3.09765625 69.703125 C2.84033218 70.40431458 2.58300812 71.10550415 2.31788635 71.82794189 C1.17858391 74.96057575 0.08072964 78.05078583 -0.625 81.3125 C4.89922054 86.01396429 9.20209077 86.78545003 16.25 86.75 C17.39263306 86.74613281 17.39263306 86.74613281 18.55834961 86.7421875 C22.9356681 86.75359481 22.9356681 86.75359481 26.375 84.3125 C26.01147656 79.18017022 24.61762021 74.49644081 22.94140625 69.6640625 C22.70340805 68.96606537 22.46540985 68.26806824 22.22019958 67.54891968 C21.71982921 66.08736673 21.21629162 64.62689456 20.7097168 63.16748047 C19.93359592 60.92622594 19.17234195 58.68028044 18.41210938 56.43359375 C17.92275726 55.01011306 17.43255343 53.58692483 16.94140625 52.1640625 C16.7142543 51.49122223 16.48710236 50.81838196 16.25306702 50.12515259 C15.18443286 46.52417756 15.18443286 46.52417756 12.375 44.3125 Z " fill="#7E41F7" transform="translate(249.625,-0.3125)"/>
<path d="M0 0 C0.70125 0.28875 1.4025 0.5775 2.125 0.875 C7.82996771 3.10737867 12.50022614 4.31343509 18.6875 4.375 C20.64236328 4.41753906 20.64236328 4.41753906 22.63671875 4.4609375 C26.07348838 4.37254608 26.07348838 4.37254608 27.71020508 1.97119141 C28.34865356 0.99545166 28.34865356 0.99545166 29 0 C29.1921962 0.55597366 29.3843924 1.11194733 29.58241272 1.68476868 C32.07486895 8.89432599 34.56849845 16.10347713 37.0625 23.3125 C37.47015594 24.49100525 37.87781189 25.6695105 38.29782104 26.88372803 C42.49567339 39.01770668 46.69530736 51.15097031 50.9375 63.26953125 C51.24153748 64.13815796 51.54557495 65.00678467 51.85882568 65.9017334 C52.46148933 67.6233176 53.06417058 69.34489565 53.66687012 71.06646729 C59.85247484 88.73679333 65.90642089 106.44930326 71.91113281 124.18188477 C76.3627126 137.32326083 80.84092482 150.44874989 85.60668945 163.48022461 C88.11202073 170.36435079 90.43984544 177.29995771 92.7421875 184.25390625 C96.51727254 195.64427394 100.46105334 206.96905977 104.48217773 218.2746582 C105.56824523 221.32865546 106.6505859 224.38395466 107.73242188 227.43945312 C109.80903192 233.2975018 111.89993759 239.15032078 114 245 C114.33055389 245.92242493 114.66110779 246.84484985 115.00167847 247.79522705 C115.943507 250.41630633 116.89227229 253.03475394 117.84375 255.65234375 C118.12050064 256.42338943 118.39725128 257.19443512 118.68238831 257.98884583 C122.32901957 267.95122577 127.9998627 276.33326141 137.625 281.375 C140.39959174 282.10515572 143.15927373 282.60361959 146 283 C146 283.33 146 283.66 146 284 C101.45 284 56.9 284 11 284 C14.10776828 280.89223172 17.86504962 279.37831679 22 278 C23.12153356 276.16925325 23.12153356 276.16925325 24 274 C24.34160156 273.32839844 24.68320312 272.65679687 25.03515625 271.96484375 C25.37417969 271.29582031 25.71320313 270.62679688 26.0625 269.9375 C26.40410156 269.26589844 26.74570312 268.59429687 27.09765625 267.90234375 C31.67510305 258.25205547 28.61642012 248.65242708 25.27577209 239.16723633 C24.30003646 236.46112922 23.30643291 233.76197029 22.3125 231.0625 C21.62545104 229.15286673 20.94033899 227.24253558 20.25708008 225.33154297 C18.86153089 221.4350603 17.45668872 217.5421361 16.04394531 213.65185547 C13.30414036 206.09545218 10.64661795 198.51060006 7.99243164 190.92379761 C7.18772728 188.62564908 6.38044278 186.32842352 5.57226562 184.03149414 C2.28874343 174.69796957 -0.96371273 165.35433059 -4.1875 156 C-4.58517578 154.85096191 -4.98285156 153.70192383 -5.39257812 152.51806641 C-7.29220244 147.01739484 -9.16905649 141.51085625 -10.98912048 135.98339844 C-11.87464076 133.29919075 -12.7711288 130.61870531 -13.66860962 127.93847656 C-14.29466899 126.05368148 -14.90477848 124.16361188 -15.5144043 122.2734375 C-18.57289414 112.9449484 -18.57289414 112.9449484 -26 107 C-31.25905171 106.59545756 -34.45298292 107.33833147 -39 110 C-36.50063476 99.45514498 -32.61456452 89.39953453 -28.875 79.25 C-27.8085698 76.34005382 -26.74375235 73.4295204 -25.67893982 70.51898193 C-24.93708763 68.49164813 -24.1946992 66.46451048 -23.45179749 64.43756104 C-19.15934476 52.72200701 -14.92405255 40.98585675 -10.6875 29.25 C-9.27532035 25.33833158 -7.8624843 21.4269012 -6.44921875 17.515625 C-6.14361526 16.66846924 -5.83801178 15.82131348 -5.52314758 14.94848633 C-3.71762682 9.95184405 -1.8749969 4.9710049 0 0 Z " fill="#FEFDFE" transform="translate(248,81)"/>
<path d="M0 0 C0.33 0 0.66 0 1 0 C1.10022461 0.66942627 1.20044922 1.33885254 1.30371094 2.02856445 C1.77415277 5.1251065 2.26198151 8.2186813 2.75 11.3125 C2.90726563 12.36501953 3.06453125 13.41753906 3.2265625 14.50195312 C4.82028735 24.46273346 6.85813262 35.26797979 15 42 C22.31503876 46.93967562 30.42968391 48.49643577 39 50 C40.175625 50.20625 41.35125 50.4125 42.5625 50.625 C45.37245029 51.10216137 48.18378447 51.56157817 51 52 C48.12668046 54.87331954 44.99316392 54.5466379 41.125 54.875 C33.66818302 55.63820958 26.9330064 57.02121964 20 60 C19.24074219 60.32484375 18.48148437 60.6496875 17.69921875 60.984375 C10.56615856 64.69195431 7.63503631 71.39939176 5.03515625 78.71484375 C3.7417853 83.30277155 2.97668933 87.77737534 2.66015625 92.52734375 C1.87748753 103.98308158 -0.07573416 110.58143953 -7 120 C-10.70461516 125.71389795 -13.88921141 131.60697665 -16.8125 137.75 C-17.11486572 138.37632324 -17.41723145 139.00264648 -17.72875977 139.64794922 C-19.48154607 143.42032649 -20.51235617 146.87086008 -21 151 C-20.40832031 150.37351562 -19.81664062 149.74703125 -19.20703125 149.1015625 C-18.02173828 147.87566406 -18.02173828 147.87566406 -16.8125 146.625 C-16.03519531 145.81289063 -15.25789063 145.00078125 -14.45703125 144.1640625 C-12.012945 142.01140148 -10.07383443 140.99367294 -7 140 C-5.51282309 143.86665996 -6.65983753 146.20287302 -8 150 C-8.37531446 152.32694964 -8.71917202 154.65976685 -9 157 C-7.68 157.33 -6.36 157.66 -5 158 C-6.66611905 158.042721 -8.33382885 158.04063832 -10 158 C-11.56095477 156.43904523 -11.16961928 154.90999105 -11.1875 152.75 C-11.15819716 149.07542339 -10.71100294 146.3150682 -9 143 C-14.31503711 147.55002735 -14.31503711 147.55002735 -19.3125 152.4375 C-21 154 -21 154 -24 154 C-25.16769225 140.86346223 -16.34962637 128.87819146 -10 118 C-9.60103516 117.31357422 -9.20207031 116.62714844 -8.79101562 115.91992188 C-4.14167484 107.97104892 -4.14167484 107.97104892 -2 105 C-1.34 105 -0.68 105 0 105 C-0.56374303 101.20515748 -1.15461947 97.41499697 -1.75 93.625 C-1.90726563 92.56410156 -2.06453125 91.50320313 -2.2265625 90.41015625 C-3.95308228 79.58620529 -6.81276328 68.54406996 -16.0625 61.8125 C-26.38735312 55.40742149 -39.20804795 54.72296916 -51 53 C-51 52.67 -51 52.34 -51 52 C-49.95827637 51.81207886 -49.95827637 51.81207886 -48.89550781 51.62036133 C-27.56743246 49.02814448 -27.56743246 49.02814448 -10.375 37.875 C-9.55651989 36.60015522 -8.76164618 35.30959306 -8 34 C-7.34 33.01 -6.68 32.02 -6 31 C-5.26000182 28.2076631 -4.59924785 25.44728282 -4 22.625 C-3.82629883 21.82658691 -3.65259766 21.02817383 -3.47363281 20.20556641 C-2.04431243 13.5054595 -0.91187623 6.79107821 0 0 Z " fill="#19181B" transform="translate(189,208)"/>
<path d="M0 0 C0.268125 0.78375 0.53625 1.5675 0.8125 2.375 C1.84814432 5.28114923 1.84814432 5.28114923 5 7 C4.45730469 8.01320313 3.91460937 9.02640625 3.35546875 10.0703125 C2.63277031 11.42185244 1.91011643 12.77341621 1.1875 14.125 C0.83107422 14.79015625 0.47464844 15.4553125 0.10742188 16.140625 C-0.41948242 17.12675781 -0.41948242 17.12675781 -0.95703125 18.1328125 C-1.30741455 18.78266113 -1.65779785 19.43250977 -2.01879883 20.10205078 C-2.91954557 21.84437603 -3.71555384 23.63981088 -4.5 25.4375 C-6 28 -6 28 -8.04296875 28.8046875 C-11.02148438 28.90234375 -11.02148438 28.90234375 -14 29 C-14.0825 29.9075 -14.165 30.815 -14.25 31.75 C-15.10638517 35.46100241 -15.88445304 36.83642572 -19 39 C-21.75 38.75 -21.75 38.75 -24 38 C-23.6503629 23.63309386 -16.50673071 11.86651071 -7.42578125 1.140625 C-5.12546098 -0.69963122 -2.82421929 -0.18828129 0 0 Z " fill="#7945E2" transform="translate(171,326)"/>
<path d="M0 0 C-0.22075652 8.91498344 -2.52359077 16.98079095 -5.23803711 25.3918457 C-5.94505419 27.58594303 -6.63281974 29.78543638 -7.31835938 31.98632812 C-7.76191806 33.38837019 -8.20653999 34.79007643 -8.65234375 36.19140625 C-8.85762192 36.84653702 -9.06290009 37.50166779 -9.2743988 38.176651 C-10.20627413 41.04103106 -10.83807115 42.83807115 -13 45 C-13.33 42.03 -13.66 39.06 -14 36 C-15.65 35.67 -17.3 35.34 -19 35 C-18.67 33.68 -18.34 32.36 -18 31 C-18.66 30.67 -19.32 30.34 -20 30 C-20 30.66 -20 31.32 -20 32 C-21.485 32.495 -21.485 32.495 -23 33 C-23.69258229 34.99117408 -24.35747635 36.9921136 -25 39 C-25.98020375 40.0194119 -26.97803008 41.02246356 -28 42 C-28.13148437 42.58007812 -28.26296875 43.16015625 -28.3984375 43.7578125 C-29.16239723 46.60529878 -30.51428756 48.74650755 -32.0625 51.25 C-32.61035156 52.14203125 -33.15820312 53.0340625 -33.72265625 53.953125 C-34.14417969 54.62859375 -34.56570312 55.3040625 -35 56 C-35.66 55.67 -36.32 55.34 -37 55 C-35.0717583 51.2243625 -33.13084105 47.45538502 -31.1875 43.6875 C-30.64029297 42.61564453 -30.09308594 41.54378906 -29.52929688 40.43945312 C-28.99755859 39.41142578 -28.46582031 38.38339844 -27.91796875 37.32421875 C-27.43094482 36.37635498 -26.9439209 35.42849121 -26.44213867 34.4519043 C-25.12456023 32.21177559 -24.01625577 30.62316612 -22 29 C-19.51953125 28.70703125 -19.51953125 28.70703125 -16.8125 28.8125 C-15.46091797 28.85310547 -15.46091797 28.85310547 -14.08203125 28.89453125 C-13.05142578 28.94673828 -13.05142578 28.94673828 -12 29 C-14.97 28.67 -17.94 28.34 -21 28 C-19.37646042 23.14825962 -16.64869744 19.28264915 -13.75 15.125 C-13.28464844 14.44308594 -12.81929687 13.76117188 -12.33984375 13.05859375 C-3.31075893 0 -3.31075893 0 0 0 Z " fill="#7E45F2" transform="translate(150,323)"/>
<path d="M0 0 C0.66220263 13.24405254 -4.37167051 25.43487258 -8.6875 37.75 C-9.20425071 39.23681428 -9.72052983 40.72379255 -10.23632812 42.2109375 C-11.48547047 45.80920061 -12.74092573 49.40520079 -14 53 C-14.66 53 -15.32 53 -16 53 C-13.65078592 42.90566655 -10.52304372 33.15370059 -7.22851562 23.33398438 C-4.90423109 16.26800418 -3.08172447 9.36379477 -2 2 C-10.62759396 10.10470948 -16.75423819 20.04360418 -23 30 C-22.06027344 29.96519531 -22.06027344 29.96519531 -21.1015625 29.9296875 C-20.28429687 29.91164063 -19.46703125 29.89359375 -18.625 29.875 C-17.40683594 29.84019531 -17.40683594 29.84019531 -16.1640625 29.8046875 C-14 30 -14 30 -12 32 C-12.79664063 31.89558594 -13.59328125 31.79117187 -14.4140625 31.68359375 C-20.46949669 31.07283354 -20.46949669 31.07283354 -25.81640625 33.40625 C-27.46672413 35.85116538 -28.71670087 38.34055323 -30 41 C-30.77916816 42.46413991 -31.56486492 43.92481583 -32.35546875 45.3828125 C-34.61553786 49.56593439 -36.81761225 53.77586726 -39 58 C-39.66 58 -40.32 58 -41 58 C-40.54738642 56.56068883 -40.08767021 55.12361001 -39.625 53.6875 C-39.36976562 52.88699219 -39.11453125 52.08648437 -38.8515625 51.26171875 C-38 49 -38 49 -36 46 C-35.56222066 42.685385 -35.23562962 40.17185702 -37.12109375 37.28125 C-38.38107252 35.82495726 -39.68839557 34.40997477 -41 33 C-41 32.34 -41 31.68 -41 31 C-39.515 30.97486328 -39.515 30.97486328 -38 30.94921875 C-30.11251865 30.58957584 -30.11251865 30.58957584 -23.46875 26.76953125 C-21.44944507 23.92888205 -19.70618187 21.03802822 -18 18 C-16.8334845 16.25660813 -15.64666301 14.52658822 -14.4375 12.8125 C-13.59058594 11.60400391 -13.59058594 11.60400391 -12.7265625 10.37109375 C-5.17462932 0 -5.17462932 0 0 0 Z " fill="#EDCFFE" transform="translate(152,321)"/>
<path d="M0 0 C0.33 0 0.66 0 1 0 C1.41435954 5.67958334 0.51230997 8.59478482 -2.625 13.3125 C-3.36616409 14.45685081 -4.10704727 15.60138361 -4.84765625 16.74609375 C-5.55792969 17.81988281 -6.26820313 18.89367187 -7 20 C-10.67062316 25.74032393 -13.88671067 31.60172157 -16.8125 37.75 C-17.11486572 38.37632324 -17.41723145 39.00264648 -17.72875977 39.64794922 C-19.48154607 43.42032649 -20.51235617 46.87086008 -21 51 C-20.40832031 50.37351562 -19.81664062 49.74703125 -19.20703125 49.1015625 C-18.41683594 48.28429687 -17.62664062 47.46703125 -16.8125 46.625 C-15.64654297 45.40683594 -15.64654297 45.40683594 -14.45703125 44.1640625 C-12.012945 42.01140148 -10.07383443 40.99367294 -7 40 C-5.51282309 43.86665996 -6.65983753 46.20287302 -8 50 C-8.37531446 52.32694964 -8.71917202 54.65976685 -9 57 C-7.68 57.33 -6.36 57.66 -5 58 C-6.66611905 58.042721 -8.33382885 58.04063832 -10 58 C-11.56095477 56.43904523 -11.16961928 54.90999105 -11.1875 52.75 C-11.15819716 49.07542339 -10.71100294 46.3150682 -9 43 C-14.31503711 47.55002735 -14.31503711 47.55002735 -19.3125 52.4375 C-21 54 -21 54 -24 54 C-25.16769225 40.86346223 -16.34962637 28.87819146 -10 18 C-9.40155273 16.97036133 -9.40155273 16.97036133 -8.79101562 15.91992188 C-4.14167484 7.97104892 -4.14167484 7.97104892 -2 5 C-1.34 5 -0.68 5 0 5 C0 3.35 0 1.7 0 0 Z " fill="#2B1353" transform="translate(189,308)"/>
<path d="M0 0 C0.33 4.62 0.66 9.24 1 14 C1.99 14 2.98 14 4 14 C4 12.35 4 10.7 4 9 C5.32 9.33 6.64 9.66 8 10 C6.54985897 13.05055575 4.86388238 15.92512471 3.13085938 18.82226562 C-1.56187151 26.7407128 -5.75090955 34.48847904 -5 44 C-3.35 44 -1.7 44 0 44 C0 44.66 0 45.32 0 46 C-4.75 47.125 -4.75 47.125 -7 46 C-7.625 43.9375 -7.625 43.9375 -8 42 C-8.66 42 -9.32 42 -10 42 C-10 42.66 -10 43.32 -10 44 C-10.66 43.67 -11.32 43.34 -12 43 C-11.73783691 42.26064209 -11.47567383 41.52128418 -11.20556641 40.75952148 C-4.16428122 21.31793388 -4.16428122 21.31793388 -1 1 C-4.54518884 2.39759905 -4.54518884 2.39759905 -8 4 C-8 3.01 -8 2.02 -8 1 C-5 -1 -5 -1 0 0 Z " fill="#814FE3" transform="translate(153,320)"/>
<path d="M0 0 C0.33 0 0.66 0 1 0 C1.56735143 4.53881146 0.00060201 7.37043455 -2.125 11.23046875 C-3.14775054 12.96979106 -3.14775054 12.96979106 -3 15 C-4.32 15.33 -5.64 15.66 -7 16 C-7.04898437 16.62648437 -7.09796875 17.25296875 -7.1484375 17.8984375 C-7.22320312 18.71570313 -7.29796875 19.53296875 -7.375 20.375 C-7.44460937 21.18710938 -7.51421875 21.99921875 -7.5859375 22.8359375 C-8 25 -8 25 -10 27 C-10.12375 28.03125 -10.2475 29.0625 -10.375 30.125 C-11.08854412 34.54897357 -12.35499121 38.34736882 -15 42 C-17.13671875 43.23046875 -17.13671875 43.23046875 -19 44 C-19 45.32 -19 46.64 -19 48 C-19.66 48 -20.32 48 -21 48 C-21 49.65 -21 51.3 -21 53 C-21.66 53 -22.32 53 -23 53 C-21.67749001 46.22984522 -19.70128598 40.11612874 -17.0625 33.75 C-16.67642578 32.81067627 -16.29035156 31.87135254 -15.89257812 30.90356445 C-5.00060472 5.00060472 -5.00060472 5.00060472 0 0 Z " fill="#8E60E3" transform="translate(34,123)"/>
<path d="M0 0 C0.33 0 0.66 0 1 0 C1.10546143 0.66942627 1.21092285 1.33885254 1.31958008 2.02856445 C1.81095307 5.12424095 2.31167927 8.21833848 2.8125 11.3125 C2.97814453 12.36501953 3.14378906 13.41753906 3.31445312 14.50195312 C4.45247686 21.48040054 5.99593949 28.21929968 8 35 C6 33 4 31 2 29 C1.401875 29.66 0.80375 30.32 0.1875 31 C-2 33 -2 33 -5 33 C-5.33 33.99 -5.66 34.98 -6 36 C-6.66 36 -7.32 36 -8 36 C-7.81824219 35.42894531 -7.63648438 34.85789063 -7.44921875 34.26953125 C-3.95804541 23.00825928 -1.62381525 11.67236606 0 0 Z " fill="#1D172B" transform="translate(189,208)"/>
<path d="M0 0 C0.66 0.33 1.32 0.66 2 1 C1.01 2.485 1.01 2.485 0 4 C36.96 4 73.92 4 112 4 C112 3.01 112 2.02 112 1 C112.639375 1.28875 113.27875 1.5775 113.9375 1.875 C117.88410292 3.3247725 121.8874607 4.15778062 126 5 C126 5.33 126 5.66 126 6 C81.45 6 36.9 6 -9 6 C-6.59027489 3.59027489 -4.04587368 2.49053393 -1 1 C-0.67 0.67 -0.34 0.34 0 0 Z " fill="#FFEBFF" transform="translate(268,359)"/>
<path d="M0 0 C2.1875 0.3125 2.1875 0.3125 4 1 C3.319375 1.61875 2.63875 2.2375 1.9375 2.875 C-3.49405088 8.30655088 -7.86925191 15.00185721 -11 22 C-10.01 22.33 -9.02 22.66 -8 23 C-9.1446875 23.680625 -9.1446875 23.680625 -10.3125 24.375 C-14.06423872 28.03948898 -14.82476797 31.99332046 -16 37 C-12.24848856 35.21092278 -12.24848856 35.21092278 -10.1875 31.8125 C-10.125625 31.214375 -10.06375 30.61625 -10 30 C-10.99 30 -11.98 30 -13 30 C-13 29.34 -13 28.68 -13 28 C-6.07 27.01 -6.07 27.01 1 26 C0.67 26.66 0.34 27.32 0 28 C-2.64860427 28.59355614 -5.29197322 28.74209269 -8 29 C-8.0825 29.9075 -8.165 30.815 -8.25 31.75 C-9.10638517 35.46100241 -9.88445304 36.83642572 -13 39 C-15.75 38.75 -15.75 38.75 -18 38 C-17.6517732 23.69104428 -10.54668726 11.7174144 -1.36328125 1.109375 C-0.91339844 0.74328125 -0.46351563 0.3771875 0 0 Z " fill="#F3DBFE" transform="translate(165,326)"/>
<path d="M0 0 C0.99 0.495 0.99 0.495 2 1 C3.95354591 6.9755522 4.35949745 12.78539625 4.65625 19.046875 C4.99416809 21.94989862 5.67617186 23.45804862 7 26 C7.36709001 27.92790234 7.6753435 29.86754847 7.9375 31.8125 C8.69714862 36.74124378 9.88884798 40.51380196 12 45 C13.27417507 48.95664891 14 51.82790533 14 56 C14.66 56 15.32 56 16 56 C16 59.3 16 62.6 16 66 C4.89265078 49.33897616 -0.29250488 19.7440797 0 0 Z " fill="#9875DD" transform="translate(1,275)"/>
<path d="M0 0 C0.74903665 5.99229318 -1.51545852 9.39967359 -5 14 C-8.57772715 18.44098571 -11.26496501 20.30605279 -17 21 C-7.29949239 0 -7.29949239 0 0 0 Z " fill="#A170F1" transform="translate(170,328)"/>
<path d="M0 0 C0.66220263 13.24405254 -4.37167051 25.43487258 -8.6875 37.75 C-9.20425071 39.23681428 -9.72052983 40.72379255 -10.23632812 42.2109375 C-11.48547047 45.80920061 -12.74092573 49.40520079 -14 53 C-14.66 53 -15.32 53 -16 53 C-13.65078592 42.90566655 -10.52304372 33.15370059 -7.22851562 23.33398438 C-4.90423109 16.26800418 -3.08172447 9.36379477 -2 2 C-2.721875 2.7425 -3.44375 3.485 -4.1875 4.25 C-6.68592573 6.69290515 -9.23643202 8.8681047 -12 11 C-10.65864082 8.11288406 -9.15056005 5.70586037 -7.125 3.25 C-6.63257813 2.63640625 -6.14015625 2.0228125 -5.6328125 1.390625 C-4 0 -4 0 0 0 Z " fill="#EBD1FD" transform="translate(152,321)"/>
<path d="M0 0 C-4.95 2.475 -4.95 2.475 -10 5 C-10 6.32 -10 7.64 -10 9 C-6.04 9.33 -2.08 9.66 2 10 C2 10.99 2 11.98 2 13 C2.66 13.33 3.32 13.66 4 14 C3.67 14.99 3.34 15.98 3 17 C2.236875 16.401875 1.47375 15.80375 0.6875 15.1875 C-8.80837613 8.97360871 -22.02132656 8.60413778 -33 7 C-33 6.67 -33 6.34 -33 6 C-31.91114502 5.78851318 -31.91114502 5.78851318 -30.80029297 5.57275391 C-27.49104766 4.92760166 -24.18302886 4.27635966 -20.875 3.625 C-19.73289063 3.40328125 -18.59078125 3.1815625 -17.4140625 2.953125 C-16.30546875 2.73398437 -15.196875 2.51484375 -14.0546875 2.2890625 C-13.03874512 2.09006348 -12.02280273 1.89106445 -10.97607422 1.68603516 C-7.92019872 1.03963034 -7.92019872 1.03963034 -4.74658203 -0.14306641 C-2 -1 -2 -1 0 0 Z " fill="#25173B" transform="translate(171,254)"/>
<path d="M0 0 C0.66 0 1.32 0 2 0 C2 0.99 2 1.98 2 3 C2.66 3 3.32 3 4 3 C5.19287411 6.87684087 6 9.91621923 6 14 C6.66 14 7.32 14 8 14 C8.18175781 14.71285156 8.36351562 15.42570312 8.55078125 16.16015625 C9.66453841 20.40385662 10.76897845 24.46094973 12.5 28.5 C14.16656021 32.3886405 15.21584523 36.25796592 16.25390625 40.3515625 C16.99823929 42.99374993 17.93652562 45.47139569 19 48 C19.33 48 19.66 48 20 48 C20.103125 49.051875 20.20625 50.10375 20.3125 51.1875 C20.99939644 54.99665301 22.02715135 56.76452822 24 60 C25.52246218 64.38257899 26.23667402 67.48919044 25 72 C19.40016046 56.4226218 13.86345776 40.82354178 8.38555908 25.20288086 C7.75412968 23.40269934 7.1220914 21.60273127 6.48944092 19.80297852 C5.59397281 17.25471399 4.70093097 14.70561231 3.80859375 12.15625 C3.53922501 11.39070801 3.26985626 10.62516602 2.99232483 9.83642578 C1.85518127 6.57949717 0.800857 3.35487034 0 0 Z " fill="#8054D9" transform="translate(275,77)"/>
<path d="M0 0 C0.99 0.33 1.98 0.66 3 1 C3.7734375 3.23046875 3.7734375 3.23046875 4.375 6.1875 C6.29020056 14.63454247 9.04120278 22.88362275 12.6875 30.75 C14.42971946 35.06406723 15.21793883 39.42724231 16 44 C16.66 44 17.32 44 18 44 C18.50435694 45.9363704 19.00333874 47.87414146 19.5 49.8125 C19.91765625 51.43091797 19.91765625 51.43091797 20.34375 53.08203125 C21 56 21 56 21 59 C22.485 59.495 22.485 59.495 24 60 C24.33 63.63 24.66 67.26 25 71 C23.0869271 68.13039065 22.11111361 65.78969141 20.98461914 62.55395508 C20.59403824 61.43882034 20.20345734 60.32368561 19.80104065 59.17475891 C19.3832988 57.96853378 18.96555695 56.76230865 18.53515625 55.51953125 C17.87196115 53.62159362 17.20876539 51.72365622 16.54553127 49.82573223 C15.61653537 47.1638116 14.69146745 44.50053219 13.76629639 41.83728027 C12.15357571 37.19757898 10.53432575 32.56015187 8.91563416 27.92253113 C8.05460439 25.45562433 7.19569678 22.98801226 6.33790588 20.51997375 C4.68666327 15.77720999 3.03416263 11.04628183 1.21264648 6.3659668 C0 3 0 3 0 0 Z " fill="#7F54D2" transform="translate(337,255)"/>
<path d="M0 0 C4.40635296 4.79269196 6.86977315 10.48895233 9.625 16.3125 C10.11484375 17.31990234 10.6046875 18.32730469 11.109375 19.36523438 C13.73390773 24.86886516 15.78546229 30.02018787 17 36 C16.01 36.495 16.01 36.495 15 37 C14.01407845 34.94072044 13.03652506 32.87743312 12.0625 30.8125 C11.51722656 29.66394531 10.97195313 28.51539063 10.41015625 27.33203125 C9 24 9 24 8.43359375 21.13671875 C8.29050781 20.43160156 8.14742188 19.72648437 8 19 C7.34 18.67 6.68 18.34 6 18 C4.9468324 15.45115741 4.07842641 12.8622361 3.1953125 10.25 C2.21835281 7.81523993 2.21835281 7.81523993 -0.1328125 7.1875 C-0.74898438 7.125625 -1.36515625 7.06375 -2 7 C-1.34 4.69 -0.68 2.38 0 0 Z " fill="#8F64DF" transform="translate(467,126)"/>
<path d="M0 0 C0.66 0.33 1.32 0.66 2 1 C-0.33333333 3.33333333 -2.66666667 5.66666667 -5 8 C-5 8.99 -5 9.98 -5 11 C-7.0625 13.25 -7.0625 13.25 -10 15 C-13.8125 14.75 -13.8125 14.75 -17 14 C-17 14.99 -17 15.98 -17 17 C-19 18.6875 -19 18.6875 -21 20 C-21 19.34 -21 18.68 -21 18 C-21.66 17.67 -22.32 17.34 -23 17 C-15.631374 10.73376687 -8.14544544 5.2170654 0 0 Z " fill="#8D5FE5" transform="translate(117,37)"/>
<path d="M0 0 C7.4071181 0.62272232 14.68194135 1.70487966 22 3 C19.12697813 5.87302187 15.99303945 5.54741224 12.125 5.875 C2.43032184 6.8507132 -6.43731011 9.24295006 -15 14 C-14.67 13.01 -14.34 12.02 -14 11 C-11.9375 10.3125 -11.9375 10.3125 -10 10 C-10 9.34 -10 8.68 -10 8 C-8.7625 7.67 -7.525 7.34 -6.25 7 C-5.20585937 6.7215625 -5.20585937 6.7215625 -4.140625 6.4375 C-2 6 -2 6 2 6 C2 5.34 2 4.68 2 4 C5.465 3.505 5.465 3.505 9 3 C7.700625 2.87625 6.40125 2.7525 5.0625 2.625 C2.84765625 2.4140625 2.84765625 2.4140625 1 2 C0.67 1.34 0.34 0.68 0 0 Z " fill="#23133E" transform="translate(218,257)"/>
<path d="M0 0 C0.99 0 1.98 0 3 0 C0.24809142 9.87449551 -3.40127837 19.41030026 -7 29 C-7.66 29 -8.32 29 -9 29 C-8.67 27.02 -8.34 25.04 -8 23 C-7.34 23 -6.68 23 -6 23 C-6.10699219 22.33613281 -6.21398437 21.67226562 -6.32421875 20.98828125 C-7.30890465 13.73548726 -7.30890465 13.73548726 -5.6875 9.875 C-5.130625 9.25625 -4.57375 8.6375 -4 8 C-3.34 8 -2.68 8 -2 8 C-2 6.35 -2 4.7 -2 3 C-1.34 3 -0.68 3 0 3 C0 2.01 0 1.02 0 0 Z " fill="#8657E0" transform="translate(257,50)"/>
<path d="M0 0 C0.66 1.32 1.32 2.64 2 4 C3.32 4 4.64 4 6 4 C6.99 4.66 7.98 5.32 9 6 C8.50371094 6.36351562 8.00742188 6.72703125 7.49609375 7.1015625 C2.82396523 10.55911492 -1.62578697 14.1725636 -6 18 C-5.55397709 11.30965634 -2.92654458 5.97187878 0 0 Z " fill="#7743E3" transform="translate(173,342)"/>
<path d="M0 0 C2.45124773 7.5749084 0.31870615 16.63469812 -2 24 C-2.35230151 25.82978301 -2.68398047 27.66360302 -3 29.5 C-3.74400212 33.78096456 -4.70987167 37.85315892 -6 42 C-6.33 42 -6.66 42 -7 42 C-6.72663179 28.10792445 -4.39847878 13.19543635 0 0 Z " fill="#9369E2" transform="translate(8,184)"/>
<path d="M0 0 C0.66 0 1.32 0 2 0 C1.80664062 0.87140625 1.61328125 1.7428125 1.4140625 2.640625 C-0.28197383 10.39873179 -1.77842635 18.15318574 -3 26 C-3.66 26 -4.32 26 -5 26 C-5.99 19.07 -6.98 12.14 -8 5 C-7.01 5.99 -6.02 6.98 -5 8 C-5 8.66 -5 9.32 -5 10 C-4.34 10 -3.68 10 -3 10 C-2.01 6.7 -1.02 3.4 0 0 Z " fill="#1E162E" transform="translate(193,282)"/>
<path d="M0 0 C-0.58212823 3.26488369 -1.52995878 4.90649106 -3.87109375 7.234375 C-4.44537109 7.80800781 -5.01964844 8.38164062 -5.61132812 8.97265625 C-6.21396484 9.55917969 -6.81660156 10.14570313 -7.4375 10.75 C-8.03626953 11.35199219 -8.63503906 11.95398438 -9.25195312 12.57421875 C-13.73293119 17 -13.73293119 17 -16 17 C-17.4606285 14.35261084 -18 13.10551666 -18 10 C-15.69 10.33 -13.38 10.66 -11 11 C-11 9.68 -11 8.36 -11 7 C-10.01 7 -9.02 7 -8 7 C-8 5.68 -8 4.36 -8 3 C-6.68 3 -5.36 3 -4 3 C-4 2.34 -4 1.68 -4 1 C-2 0 -2 0 0 0 Z " fill="#9971E3" transform="translate(436,416)"/>
<path d="M0 0 C1.98 0 3.96 0 6 0 C6.2475 0.78375 6.495 1.5675 6.75 2.375 C8.18650005 5.3916501 9.04720831 5.71565565 12 7 C10.98679688 6.96519531 10.98679688 6.96519531 9.953125 6.9296875 C9.06109375 6.91164063 8.1690625 6.89359375 7.25 6.875 C6.36828125 6.85179687 5.4865625 6.82859375 4.578125 6.8046875 C1.85267749 7.0111608 0.37892999 7.73123734 -2 9 C-5.25 9.125 -5.25 9.125 -8 9 C-8 6.69 -8 4.38 -8 2 C-7.67 3.32 -7.34 4.64 -7 6 C-5.35 6 -3.7 6 -2 6 C-2.33 4.35 -2.66 2.7 -3 1 C-2.01 1.33 -1.02 1.66 0 2 C0 1.34 0 0.68 0 0 Z " fill="#7843E2" transform="translate(188,356)"/>
<path d="M0 0 C-23.1503268 14 -23.1503268 14 -26 14 C-26 13.01 -26 12.02 -26 11 C-25.34 11 -24.68 11 -24 11 C-23.67 9.68 -23.34 8.36 -23 7 C-20.69 7 -18.38 7 -16 7 C-16 6.34 -16 5.68 -16 5 C-3.7639569 -1.2546523 -3.7639569 -1.2546523 0 0 Z " fill="#926BDB" transform="translate(387,460)"/>
<path d="M0 0 C2.0625 0.4375 2.0625 0.4375 4 1 C1.99765361 8.31905848 -0.63203963 15.18564502 -3.6875 22.125 C-4.10322266 23.08148438 -4.51894531 24.03796875 -4.94726562 25.0234375 C-5.95984146 27.35119804 -6.97746162 29.67660297 -8 32 C-9.01194692 28.46520019 -8.84001375 26.48004468 -7.75 22.9375 C-7.49734375 22.08027344 -7.2446875 21.22304688 -6.984375 20.33984375 C-5.96069892 17.90658195 -4.8637801 16.80791748 -3 15 C-2.2730774 11.89160979 -2.2730774 11.89160979 -2 9 C-1.34 9 -0.68 9 0 9 C-0.185625 7.700625 -0.37125 6.40125 -0.5625 5.0625 C-0.87890625 2.84765625 -0.87890625 2.84765625 -1 1 C-0.67 0.67 -0.34 0.34 0 0 Z " fill="#946BDE" transform="translate(483,329)"/>
<path d="M0 0 C3.96 0 7.92 0 12 0 C12.33 0.66 12.66 1.32 13 2 C15.32716 2.37400786 17.66117862 2.70764733 20 3 C20.33 3.33 20.66 3.66 21 4 C22.84891946 4.23363881 24.70488031 4.41303635 26.5625 4.5625 C28.08037109 4.68818359 28.08037109 4.68818359 29.62890625 4.81640625 C30.80259766 4.90728516 30.80259766 4.90728516 32 5 C32 5.66 32 6.32 32 7 C32.61746094 6.98839844 33.23492187 6.97679687 33.87109375 6.96484375 C39.67525544 6.90300337 45.24338088 7.25721044 51 8 C51 8.33 51 8.66 51 9 C42.85676007 9.22672594 35.20280884 8.67511876 27.1875 7.25 C26.15302734 7.07243164 25.11855469 6.89486328 24.05273438 6.71191406 C15.8907334 5.26512947 7.93672178 3.39119182 0 1 C0 0.67 0 0.34 0 0 Z " fill="#7A50C9" transform="translate(181,490)"/>
<path d="M0 0 C0.66 0.66 1.32 1.32 2 2 C1.14535156 2.06058594 0.29070312 2.12117187 -0.58984375 2.18359375 C-1.69457031 2.26738281 -2.79929688 2.35117187 -3.9375 2.4375 C-5.03964844 2.51871094 -6.14179688 2.59992188 -7.27734375 2.68359375 C-9.91109903 2.70418084 -9.91109903 2.70418084 -11 4 C-12.32870604 4.22603233 -13.66742419 4.39405513 -15.0078125 4.53515625 C-15.83023438 4.62216797 -16.65265625 4.70917969 -17.5 4.79882812 C-18.36625 4.88583984 -19.2325 4.97285156 -20.125 5.0625 C-20.96804687 5.15337891 -21.81109375 5.24425781 -22.6796875 5.33789062 C-27.48214467 5.83379653 -32.17270908 6.09811567 -37 6 C-33.33256353 3.82216498 -29.45454891 3.16678136 -25.3125 2.4375 C-24.59642578 2.30819092 -23.88035156 2.17888184 -23.14257812 2.0456543 C-15.43764472 0.68087518 -7.84140006 -0.41270527 0 0 Z " fill="#9B76DD" transform="translate(228,1)"/>
<path d="M0 0 C5.39075683 1.45039025 9.32448882 4.00475207 13.8125 7.1875 C14.51375 7.67710205 15.215 8.1667041 15.9375 8.67114258 C21.08382608 12.28772086 26.12052127 16.02864648 31 20 C30.34 20.66 29.68 21.32 29 22 C28.67 21.34 28.34 20.68 28 20 C26.02477154 18.95191959 24.02518491 17.9479589 22 17 C22 16.34 22 15.68 22 15 C21.401875 14.87625 20.80375 14.7525 20.1875 14.625 C18 14 18 14 15 12 C15 11.34 15 10.68 15 10 C14.13375 9.8453125 14.13375 9.8453125 13.25 9.6875 C10.64617649 8.89188726 9.05370602 7.77043622 7 6 C6.67 5.34 6.34 4.68 6 4 C3.47266765 3.34444881 3.47266765 3.34444881 1 3 C0.67 2.01 0.34 1.02 0 0 Z " fill="#A27DDF" transform="translate(374,33)"/>
<path d="M0 0 C1.32 0.66 2.64 1.32 4 2 C4 4 4 4 2.6875 5.5 C1 7 1 7 -2 9 C-2.433125 10.0209375 -2.433125 10.0209375 -2.875 11.0625 C-4 13 -4 13 -6.5 13.875 C-7.7375 13.936875 -7.7375 13.936875 -9 14 C-9.66 13.34 -10.32 12.68 -11 12 C-7.37 8.04 -3.74 4.08 0 0 Z " fill="#8E60E0" transform="translate(72,73)"/>
<path d="M0 0 C0.33 0 0.66 0 1 0 C1.42624001 5.72895471 0.46697879 8.67371226 -2.6875 13.4375 C-3.05037109 13.99590576 -3.41324219 14.55431152 -3.78710938 15.12963867 C-4.84750238 16.76001646 -5.92347081 18.3802315 -7 20 C-8.00573565 21.60057693 -9.00688834 23.20405979 -10 24.8125 C-10.66 25.864375 -11.32 26.91625 -12 28 C-12.99 27.67 -13.98 27.34 -15 27 C-12.88693047 23.32633225 -10.75762005 19.66234751 -8.625 16 C-7.72007812 14.42605469 -7.72007812 14.42605469 -6.796875 12.8203125 C-5.92675781 11.33144531 -5.92675781 11.33144531 -5.0390625 9.8125 C-4.50490723 8.89082031 -3.97075195 7.96914063 -3.42041016 7.01953125 C-2.9516748 6.35308594 -2.48293945 5.68664062 -2 5 C-1.34 5 -0.68 5 0 5 C0 3.35 0 1.7 0 0 Z " fill="#2E1359" transform="translate(189,308)"/>
<path d="M0 0 C0.33 0 0.66 0 1 0 C3.45479317 11.34913679 5.61465294 22.36251893 6 34 C5.67 34 5.34 34 5 34 C5 32.02 5 30.04 5 28 C4.01 27.67 3.02 27.34 2 27 C1.93941406 26.24074219 1.87882812 25.48148438 1.81640625 24.69921875 C1.73261719 23.70535156 1.64882813 22.71148437 1.5625 21.6875 C1.48128906 20.70136719 1.40007812 19.71523437 1.31640625 18.69921875 C1.08187441 15.90624401 1.08187441 15.90624401 0 13 C-0.06937062 10.77181559 -0.08457084 8.54165476 -0.0625 6.3125 C-0.05347656 5.13300781 -0.04445313 3.95351562 -0.03515625 2.73828125 C-0.02355469 1.83464844 -0.01195312 0.93101562 0 0 Z " fill="#986FDF" transform="translate(493,192)"/>
<path d="M0 0 C0 0.66 0 1.32 0 2 C-0.66 2 -1.32 2 -2 2 C-2 2.66 -2 3.32 -2 4 C-3.01320312 4.36351562 -3.01320312 4.36351562 -4.046875 4.734375 C-9.02377127 6.60430712 -12.28106315 8.13802712 -16 12 C-17.875 11.6875 -17.875 11.6875 -20 11 C-22.00946222 11.27050453 -24.01354224 11.59367909 -26 12 C-22.22298655 8.79709259 -17.89678902 6.92965975 -13.4375 4.875 C-12.66986328 4.51535156 -11.90222656 4.15570312 -11.11132812 3.78515625 C-2.98103933 0 -2.98103933 0 0 0 Z " fill="#956BE3" transform="translate(159,17)"/>
<path d="M0 0 C4.3355778 6.50336671 4.80115169 12.32066798 4 20 C2.27059146 25.86572587 -0.93214703 33.12520096 -6.25 36.375 C-6.8275 36.58125 -7.405 36.7875 -8 37 C-8 35.68 -8 34.36 -8 33 C-7.34 33 -6.68 33 -6 33 C-6 32.34 -6 31.68 -6 31 C-5.01 31 -4.02 31 -3 31 C-2.67 29.68 -2.34 28.36 -2 27 C-1.34 27 -0.68 27 0 27 C0.39185886 24.29315955 0.76383568 21.58596184 1.125 18.875 C1.23714844 18.11445313 1.34929687 17.35390625 1.46484375 16.5703125 C2.08780489 11.75274632 1.80323828 8.60827561 0 4 C0 2.68 0 1.36 0 0 Z " fill="#8053E0" transform="translate(274,324)"/>
<path d="M0 0 C0.99 0.33 1.98 0.66 3 1 C2.86722656 1.56847656 2.73445312 2.13695312 2.59765625 2.72265625 C1.5115242 7.47151097 0.61687618 12.16780324 0 17 C1.32 17.33 2.64 17.66 4 18 C2.33388095 18.042721 0.66617115 18.04063832 -1 18 C-2.56095477 16.43904523 -2.16961928 14.90999105 -2.1875 12.75 C-2.15819716 9.07542339 -1.71100294 6.3150682 0 3 C-0.79664063 3.70576172 -0.79664063 3.70576172 -1.609375 4.42578125 C-2.66898438 5.35970703 -2.66898438 5.35970703 -3.75 6.3125 C-4.44609375 6.92738281 -5.1421875 7.54226563 -5.859375 8.17578125 C-7.85114506 9.87314734 -9.88898915 11.45477809 -12 13 C-10.61536056 9.87250593 -9.00477577 7.7595015 -6.5625 5.375 C-5.96566406 4.78460938 -5.36882812 4.19421875 -4.75390625 3.5859375 C-3 2 -3 2 0 0 Z " fill="#431C84" transform="translate(180,348)"/>
<path d="M0 0 C-1.64566523 5.68502535 -4.29032784 10.76681636 -7 16 C-2.545 15.505 -2.545 15.505 2 15 C1.67 15.66 1.34 16.32 1 17 C-0.77734375 17.484375 -0.77734375 17.484375 -2.9375 17.75 C-3.64777344 17.84796875 -4.35804688 17.9459375 -5.08984375 18.046875 C-7 18 -7 18 -9 16 C-9 9.72585237 -7.30492342 6.36501272 -3.47265625 1.46875 C-2 0 -2 0 0 0 Z " fill="#E8CCFD" transform="translate(203,344)"/>
<path d="M0 0 C-7.65917634 3.16144725 -15.33725646 6.21659767 -23.1875 8.875 C-24.39792969 9.28492188 -25.60835938 9.69484375 -26.85546875 10.1171875 C-30 11 -30 11 -34 11 C-34 10.34 -34 9.68 -34 9 C-33.05898438 8.73445313 -32.11796875 8.46890625 -31.1484375 8.1953125 C-29.90320313 7.84210938 -28.65796875 7.48890625 -27.375 7.125 C-26.14523437 6.77695312 -24.91546875 6.42890625 -23.6484375 6.0703125 C-21.34405114 5.39429338 -19.05375473 4.66616651 -16.7890625 3.8671875 C-14 3 -14 3 -10 3 C-10 2.34 -10 1.68 -10 1 C-6.16112237 -0.48320272 -3.93795909 -1.22419163 0 0 Z " fill="#9C79DD" transform="translate(350,480)"/>
<path d="M0 0 C0.66 0 1.32 0 2 0 C3.31626692 3.61973402 4 6.09567131 4 10 C4.66 10 5.32 10 6 10 C7.62944654 12.94658249 8.42256337 15.56505072 9 18.875 C9.55121774 21.87362449 10.17023558 24.48382745 11.1875 27.375 C12.06695256 30.21630828 11.82806663 31.23977791 11 34 C9.42737727 29.64220766 7.86097221 25.28225003 6.30029297 20.92016602 C5.76847002 19.43648059 5.23495164 17.95340175 4.69970703 16.47094727 C3.93075408 14.34027708 3.16792014 12.2075015 2.40625 10.07421875 C2.16563843 9.41161545 1.92502686 8.74901215 1.67712402 8.06632996 C0.67009285 5.22936915 0 3.03673783 0 0 Z " fill="#7E52D9" transform="translate(301,150)"/>
<path d="M0 0 C3.81248345 -0.02936502 7.62493726 -0.04692035 11.4375 -0.0625 C12.50677734 -0.07087891 13.57605469 -0.07925781 14.67773438 -0.08789062 C20.87624228 -0.10684631 26.8549481 0.17936741 33 1 C33 1.33 33 1.66 33 2 C26.69264693 3.00344253 20.36559573 3.50873071 14 4 C14 3.34 14 2.68 14 2 C12.80375 2.020625 11.6075 2.04125 10.375 2.0625 C6.81995131 2.06882571 3.49444376 1.69888875 0 1 C0 0.67 0 0.34 0 0 Z " fill="#8C5EE0" transform="translate(256,1)"/>
<path d="M0 0 C0.33 0 0.66 0 1 0 C1.28435784 10.85299084 0.47317858 21.25368837 -1 32 C-1.33 32 -1.66 32 -2 32 C-3.0799095 25.52814803 -2.82617124 19.6938227 -2.125 13.1875 C-2.03347656 12.24712891 -1.94195312 11.30675781 -1.84765625 10.33789062 C-1.14788348 3.44365044 -1.14788348 3.44365044 0 0 Z " fill="#9C6FE3" transform="translate(499,256)"/>
<path d="M0 0 C3.93774177 -0.36630156 5.56539771 -0.30233203 8.875 2 C9.926875 2.99 9.926875 2.99 11 4 C10.67 5.32 10.34 6.64 10 8 C10.99 8.66 11.98 9.32 13 10 C12.67 10.99 12.34 11.98 12 13 C7.17514834 9.04174791 3.16589254 5.40839975 0 0 Z " fill="#7946E0" transform="translate(65,418)"/>
<path d="M0 0 C0.33 0.99 0.66 1.98 1 3 C1.66 3 2.32 3 3 3 C3 3.99 3 4.98 3 6 C2.4225 6.226875 1.845 6.45375 1.25 6.6875 C-2.56083774 8.91048868 -4.61929664 11.85788992 -6 16 C-7.32 16 -8.64 16 -10 16 C-8.55797524 11.84848662 -6.4989562 8.70021555 -3.875 5.1875 C-3.15054688 4.21167969 -2.42609375 3.23585938 -1.6796875 2.23046875 C-0.84824219 1.12638672 -0.84824219 1.12638672 0 0 Z " fill="#986FE1" transform="translate(49,100)"/>
<path d="M0 0 C0.66 0 1.32 0 2 0 C1.67 3.63 1.34 7.26 1 11 C0.67 9.68 0.34 8.36 0 7 C-0.66 7 -1.32 7 -2 7 C-3.58455866 8.78723941 -3.58455866 8.78723941 -5.125 11 C-5.93324219 12.11375 -5.93324219 12.11375 -6.7578125 13.25 C-7.16773438 13.8275 -7.57765625 14.405 -8 15 C-8.99 14.67 -9.98 14.34 -11 14 C-9.27522672 11.77620524 -7.54831645 9.55418208 -5.81640625 7.3359375 C-4.42575219 5.54752648 -3.05267539 3.74543497 -1.6875 1.9375 C-1.130625 1.298125 -0.57375 0.65875 0 0 Z " fill="#7F4FE2" transform="translate(148,323)"/>
<path d="M0 0 C4.32045672 2.24331407 7.07664095 4.4744493 9 9 C8.6875 11.3125 8.6875 11.3125 8 13 C8 12.01 8 11.02 8 10 C6.68 10.33 5.36 10.66 4 11 C4.061875 10.05125 4.12375 9.1025 4.1875 8.125 C4.125625 7.09375 4.06375 6.0625 4 5 C-0.01406832 2.32395446 -3.28017257 2.17322751 -8 3 C-10.45141166 4.42999014 -11.99315064 5.94169297 -14 8 C-14.33 7.34 -14.66 6.68 -15 6 C-10.26329667 0.92496072 -7.09433319 -0.73389654 0 0 Z " fill="#8E62E3" transform="translate(222,187)"/>
<path d="M0 0 C-1.45044271 4.10958767 -3.51110752 7.43258745 -6 11 C-6.268125 10.4225 -6.53625 9.845 -6.8125 9.25 C-7.95053246 6.94252104 -7.95053246 6.94252104 -9.625 4.875 C-11 3 -11 3 -11 1 C-7.26513121 0.4254048 -3.78706732 0 0 0 Z " fill="#7C4AE4" transform="translate(125,352)"/>
<path d="M0 0 C2.70239953 2.70239953 3.4274359 5.81824127 4.5625 9.375 C4.78357422 10.04789062 5.00464844 10.72078125 5.23242188 11.4140625 C6.26558373 14.58533876 7.25765713 17.74703687 8 21 C9.32 20.67 10.64 20.34 12 20 C12.79953138 23.28696233 13.09658936 24.71023192 12 28 C7.25875315 22.68055231 4.62414627 17.20021675 2.0625 10.625 C1.744021 9.81562988 1.42554199 9.00625977 1.09741211 8.17236328 C-0.56160344 3.77085566 -0.56160344 3.77085566 -1 2 C-0.67 1.34 -0.34 0.68 0 0 Z " fill="#8056D3" transform="translate(363,327)"/>
<path d="M0 0 C1.8253125 0.0309375 1.8253125 0.0309375 3.6875 0.0625 C3.6875 0.3925 3.6875 0.7225 3.6875 1.0625 C2.71167969 1.23265625 1.73585937 1.4028125 0.73046875 1.578125 C-1.17798828 1.94164062 -1.17798828 1.94164062 -3.125 2.3125 C-5.02185547 2.66054688 -5.02185547 2.66054688 -6.95703125 3.015625 C-10.52078046 4.12748156 -11.53459921 4.86360043 -13.3125 8.0625 C-19.0625 7.3125 -19.0625 7.3125 -21.3125 5.0625 C-19.41796779 4.41285977 -17.52181351 3.76794885 -15.625 3.125 C-14.56925781 2.76535156 -13.51351562 2.40570313 -12.42578125 2.03515625 C-8.21710928 0.7202763 -4.41110622 -0.07476451 0 0 Z " fill="#6F41CC" transform="translate(230.3125,261.9375)"/>
<path d="M0 0 C0.33 0.66 0.66 1.32 1 2 C1.66 2 2.32 2 3 2 C3 1.34 3 0.68 3 0 C3.66 0 4.32 0 5 0 C3.46906512 4.67199091 0.89242605 8.02170005 -2.125 11.8125 C-2.82689453 12.7087207 -2.82689453 12.7087207 -3.54296875 13.62304688 C-4.69005565 15.08616792 -5.84431234 16.54366297 -7 18 C-7.33 16.68 -7.66 15.36 -8 14 C-6.68 13.34 -5.36 12.68 -4 12 C-4 10.35 -4 8.7 -4 7 C-3.01 7 -2.02 7 -1 7 C-1.020625 6.030625 -1.04125 5.06125 -1.0625 4.0625 C-1 1 -1 1 0 0 Z " fill="#9674DC" transform="translate(449,394)"/>
<path d="M0 0 C0.66 0.33 1.32 0.66 2 1 C1.525625 1.5775 1.05125 2.155 0.5625 2.75 C-1.09418867 4.84682179 -1.09418867 4.84682179 -1.5 7.0625 C-2.11939447 9.46265358 -3.27185846 10.27185846 -5 12 C-5.13277344 12.58265625 -5.26554687 13.1653125 -5.40234375 13.765625 C-6.16329845 16.6105014 -7.51607201 18.74939304 -9.0625 21.25 C-9.61035156 22.14203125 -10.15820312 23.0340625 -10.72265625 23.953125 C-11.14417969 24.62859375 -11.56570312 25.3040625 -12 26 C-12.66 25.67 -13.32 25.34 -14 25 C-12.04778003 21.20515525 -10.08719898 17.41469322 -8.125 13.625 C-7.56941406 12.54476563 -7.01382813 11.46453125 -6.44140625 10.3515625 C-5.90644531 9.3203125 -5.37148437 8.2890625 -4.8203125 7.2265625 C-4.32805176 6.27346191 -3.83579102 5.32036133 -3.32861328 4.33837891 C-2 2 -2 2 0 0 Z " fill="#8153DF" transform="translate(127,353)"/>
<path d="M0 0 C0.66 0 1.32 0 2 0 C2.07347656 1.28583984 2.07347656 1.28583984 2.1484375 2.59765625 C2.676914 11.47943184 2.676914 11.47943184 5 20 C5.66 20.33 6.32 20.66 7 21 C7 23.64 7 26.28 7 29 C0.19090586 22.19090586 0.27141665 9.05174533 0 0 Z " fill="#7346D1" transform="translate(191,214)"/>
<path d="M0 0 C3.9252025 3.70090521 6.94580156 7.54959656 10 12 C9.34 12.66 8.68 13.32 8 14 C8 13.34 8 12.68 8 12 C5.36 11.34 2.72 10.68 0 10 C0 6.7 0 3.4 0 0 Z " fill="#8E60E2" transform="translate(443,91)"/>
<path d="M0 0 C1.4606285 2.64738916 2 3.89448334 2 7 C1.01 6.67 0.02 6.34 -1 6 C-2.32 8.64 -3.64 11.28 -5 14 C-6.65 14 -8.3 14 -10 14 C-8.43632643 10.47761953 -6.30504111 7.72876006 -3.875 4.75 C-3.15054688 3.85796875 -2.42609375 2.9659375 -1.6796875 2.046875 C-0.84824219 1.03367187 -0.84824219 1.03367187 0 0 Z " fill="#956DE5" transform="translate(60,86)"/>
<path d="M0 0 C0.33 0.66 0.66 1.32 1 2 C0.06553465 4.03144641 -0.93224776 6.03533587 -2 8 C-1.01 8.33 -0.02 8.66 1 9 C-1.64 11.31 -4.28 13.62 -7 16 C-7.66 15.67 -8.32 15.34 -9 15 C-8.06652642 13.24784894 -7.1280468 11.49836437 -6.1875 9.75 C-5.66542969 8.77546875 -5.14335937 7.8009375 -4.60546875 6.796875 C-3.21034812 4.36644588 -1.73804039 2.19212301 0 0 Z " fill="#7E4CE4" transform="translate(162,333)"/>
<path d="M0 0 C9.27394893 0.58882215 18.0146265 2.75886856 27 5 C24.63713383 6.48190821 23.35904271 7.02924556 20.54223633 6.79980469 C19.64786865 6.59258789 18.75350098 6.38537109 17.83203125 6.171875 C16.85685547 5.94886719 15.88167969 5.72585937 14.87695312 5.49609375 C13.86568359 5.24988281 12.85441406 5.00367188 11.8125 4.75 C10.78962891 4.51925781 9.76675781 4.28851562 8.71289062 4.05078125 C3.13545763 2.74062114 3.13545763 2.74062114 1 2 C0.67 1.34 0.34 0.68 0 0 Z " fill="#A686E2" transform="translate(290,3)"/>
<path d="M0 0 C2 2 2 2 2.5 4.875 C2.40017254 10.75234184 -1.23601048 15.990269 -4 21 C-3.34 21.33 -2.68 21.66 -2 22 C-2.99 22 -3.98 22 -5 22 C-5.66 20.68 -6.32 19.36 -7 18 C-6.525625 17.4225 -6.05125 16.845 -5.5625 16.25 C-4.0515133 14.07417916 -3.45963849 12.57397552 -3 10 C-2.01 10 -1.02 10 0 10 C0 6.7 0 3.4 0 0 Z " fill="#8150E3" transform="translate(115,358)"/>
<path d="M0 0 C2 1 2 1 3.125 4.0625 C4.72275452 10.86543918 4.15157333 18.06130965 4 25 C3.67 25 3.34 25 3 25 C2.49420286 21.95919579 1.99519241 18.91753354 1.5 15.875 C1.35691406 15.0190625 1.21382813 14.163125 1.06640625 13.28125 C0.34304266 8.80328495 -0.17918816 4.55436565 0 0 Z " fill="#A27CE5" transform="translate(1,275)"/>
<path d="M0 0 C1.53445094 3.06890187 0.54984289 5.70094266 0 9 C0.99 9.33 1.98 9.66 3 10 C1.35 9.67 -0.3 9.34 -2 9 C-2 7.02 -2 5.04 -2 3 C-2.66 3 -3.32 3 -4 3 C-4.33 3.99 -4.66 4.98 -5 6 C-6.62652316 7.70586575 -8.29006566 9.3777546 -10 11 C-10.66 10.67 -11.32 10.34 -12 10 C-11.525625 9.4225 -11.05125 8.845 -10.5625 8.25 C-8.71876366 5.87849022 -8.71876366 5.87849022 -8 2 C-5.36 1.34 -2.72 0.68 0 0 Z " fill="#7747D7" transform="translate(165,353)"/>
<path d="M0 0 C0.66 0 1.32 0 2 0 C1.835 0.61875 1.67 1.2375 1.5 1.875 C0.79924683 6.25470729 0.92265749 10.57428989 1 15 C0.34 15 -0.32 15 -1 15 C-1.0825 14.05125 -1.165 13.1025 -1.25 12.125 C-1.4975 11.09375 -1.745 10.0625 -2 9 C-3.98562946 7.77763798 -3.98562946 7.77763798 -6 7 C-5.04882866 5.8274869 -4.08882991 4.66212985 -3.125 3.5 C-2.59132812 2.8503125 -2.05765625 2.200625 -1.5078125 1.53125 C-0.76144531 0.77328125 -0.76144531 0.77328125 0 0 Z " fill="#7743E0" transform="translate(178,351)"/>
<path d="M0 0 C0.33 0.66 0.66 1.32 1 2 C3.02463255 2.65213292 3.02463255 2.65213292 5 3 C3.02 3 1.04 3 -1 3 C-1 3.66 -1 4.32 -1 5 C-0.01 5 0.98 5 2 5 C1.25 9.75 1.25 9.75 -1 12 C-1.99 12 -2.98 12 -4 12 C-3.5317879 7.22423661 -2.75668002 3.95523655 0 0 Z " fill="#7D51DA" transform="translate(153,351)"/>
<path d="M0 0 C0.66 0 1.32 0 2 0 C2 0.99 2 1.98 2 3 C2.99 2.67 3.98 2.34 5 2 C5.66 4.97 6.32 7.94 7 11 C7.33 11 7.66 11 8 11 C8 12.98 8 14.96 8 17 C5.72195761 14.12071475 3.95965316 11.2169671 2.3125 7.9375 C1.87550781 7.08027344 1.43851563 6.22304688 0.98828125 5.33984375 C0 3 0 3 0 0 Z " fill="#9874DF" transform="translate(21,350)"/>
<path d="M0 0 C2.45403644 2.90848764 4.73115569 5.92015286 6.875 9.0625 C7.32617188 9.71347656 7.77734375 10.36445312 8.2421875 11.03515625 C9 13 9 13 8.1328125 15.24609375 C7.75898438 15.82488281 7.38515625 16.40367188 7 17 C6.67 15.02 6.34 13.04 6 11 C5.34 11 4.68 11 4 11 C4 10.34 4 9.68 4 9 C3.01 8.67 2.02 8.34 1 8 C-0.60769874 5.66883683 -1.09530596 4.57183574 -0.625 1.75 C-0.41875 1.1725 -0.2125 0.595 0 0 Z " fill="#9469E2" transform="translate(458,111)"/>
<path d="M0 0 C0.5775 0.165 1.155 0.33 1.75 0.5 C4.26664369 1.14462031 4.26664369 1.14462031 8 1 C10.1875 1.75 10.1875 1.75 12 3 C12.6875 4.9375 12.6875 4.9375 13 7 C13.33 7.99 13.66 8.98 14 10 C10.19136032 8.65378455 7.34590149 6.94641263 4.1875 4.4375 C3.39730469 3.81746094 2.60710937 3.19742187 1.79296875 2.55859375 C0.90544922 1.78708984 0.90544922 1.78708984 0 1 C0 0.67 0 0.34 0 0 Z " fill="#7243D8" transform="translate(98,448)"/>
<path d="M0 0 C0.9590625 0.433125 0.9590625 0.433125 1.9375 0.875 C5.88410292 2.3247725 9.8874607 3.15778062 14 4 C14 4.33 14 4.66 14 5 C6.08 5 -1.84 5 -10 5 C-10 4.67 -10 4.34 -10 4 C-6.7 3.67 -3.4 3.34 0 3 C0 2.01 0 1.02 0 0 Z " fill="#F5DDFE" transform="translate(380,360)"/>
<path d="M0 0 C1.1673418 3.5020254 0.79056598 4.29616038 -0.43359375 7.66796875 C-0.75263672 8.56064453 -1.07167969 9.45332031 -1.40039062 10.37304688 C-1.74263672 11.30181641 -2.08488281 12.23058594 -2.4375 13.1875 C-2.77587891 14.12787109 -3.11425781 15.06824219 -3.46289062 16.03710938 C-4.30048809 18.36114742 -5.14645283 20.68178235 -6 23 C-6.66 23 -7.32 23 -8 23 C-7.34 19.37 -6.68 15.74 -6 12 C-5.34 12 -4.68 12 -4 12 C-3.34 8.7 -2.68 5.4 -2 2 C-1.34 2 -0.68 2 0 2 C0 1.34 0 0.68 0 0 Z " fill="#7F52D7" transform="translate(245,86)"/>
<path d="M0 0 C1 3 1 3 1 7 C1.99 6.34 2.98 5.68 4 5 C4 5.66 4 6.32 4 7 C4.66 7.33 5.32 7.66 6 8 C2.5980513 10.09350689 -0.05272412 10.17942163 -4 10 C-3.43454163 6.04179141 -2.19097652 3.3340947 0 0 Z " fill="#7E4CE6" transform="translate(200,350)"/>
<path d="M0 0 C0.66 0.33 1.32 0.66 2 1 C-0.64 8.26 -3.28 15.52 -6 23 C-6.33 23 -6.66 23 -7 23 C-7.30433313 17.82633685 -6.76288101 15.31009437 -4 11 C-3.64763503 9.00326516 -3.31165441 7.00349261 -3 5 C-2.34 4.34 -1.68 3.68 -1 3 C-0.67 2.01 -0.34 1.02 0 0 Z " fill="#7E4FDF" transform="translate(236,110)"/>
<path d="M0 0 C6.61242722 1.82221376 12.80520671 4.05223604 19 7 C16 9 16 9 13.375 8.75 C12.59125 8.5025 11.8075 8.255 11 8 C10.67 7.34 10.34 6.68 10 6 C7.65961814 4.86897474 7.65961814 4.86897474 4.9375 3.875 C4.01839844 3.52179687 3.09929687 3.16859375 2.15234375 2.8046875 C1.44207031 2.53914063 0.73179687 2.27359375 0 2 C0 1.34 0 0.68 0 0 Z " fill="#9F7ADE" transform="translate(336,15)"/>
<path d="M0 0 C2.875 1.125 2.875 1.125 6 3 C7.1875 6.125 7.1875 6.125 8 9 C8.99 9.33 9.98 9.66 11 10 C11 11.65 11 13.3 11 15 C6.82616605 11.07168569 3.10605574 6.83520017 0 2 C0 1.34 0 0.68 0 0 Z " fill="#7546D5" transform="translate(45,393)"/>
<path d="M0 0 C-3.13498292 1.85776765 -5.37471432 2.20140476 -9 2 C-9.061875 2.9075 -9.12375 3.815 -9.1875 4.75 C-10.18446044 8.73784176 -11.64888166 9.76592111 -15 12 C-15.66 11.34 -16.32 10.68 -17 10 C-15.7934375 9.38125 -15.7934375 9.38125 -14.5625 8.75 C-11.85890282 7.26547669 -11.85890282 7.26547669 -11.1875 4.8125 C-11.125625 4.214375 -11.06375 3.61625 -11 3 C-11.99 3 -12.98 3 -14 3 C-14 2.34 -14 1.68 -14 1 C-12.23103898 0.63659714 -10.45973374 0.28459117 -8.6875 -0.0625 C-7.70136719 -0.25972656 -6.71523437 -0.45695312 -5.69921875 -0.66015625 C-3 -1 -3 -1 0 0 Z " fill="#D8B0FC" transform="translate(166,353)"/>
<path d="M0 0 C1.32 0.66 2.64 1.32 4 2 C3.01 2.33 2.02 2.66 1 3 C1.33 3.66 1.66 4.32 2 5 C4.02463255 5.65213292 4.02463255 5.65213292 6 6 C5.67 7.65 5.34 9.3 5 11 C4.34 11 3.68 11 3 11 C3 11.66 3 12.32 3 13 C1.68 13.33 0.36 13.66 -1 14 C-0.835 12.80375 -0.67 11.6075 -0.5 10.375 C-0.06029433 6.89451285 0.08780713 3.51228512 0 0 Z " fill="#7D49EA" transform="translate(202,336)"/>
<path d="M0 0 C0.66 0 1.32 0 2 0 C4 3 4 3 4 7 C4.66 7 5.32 7 6 7 C6 10.3 6 13.6 6 17 C4.0990238 14.1485357 3.03734101 11.70289524 1.875 8.5 C1.52179687 7.5409375 1.16859375 6.581875 0.8046875 5.59375 C0 3 0 3 0 0 Z " fill="#9D79E2" transform="translate(11,324)"/>
<path d="M0 0 C0.66 0.33 1.32 0.66 2 1 C1.54625 1.37125 1.0925 1.7425 0.625 2.125 C-1.24580013 3.99545412 -1.24580013 3.99545412 -1.75 7.0625 C-2.1625 8.031875 -2.575 9.00125 -3 10 C-6.375 11.25 -6.375 11.25 -10 12 C-11.35350594 12.62469505 -12.69934483 13.2716331 -14 14 C-10.12814498 9.03918575 -5.79125711 5.06361292 -1 1 C-0.67 0.67 -0.34 0.34 0 0 Z " fill="#A582E3" transform="translate(87,59)"/>
<path d="M0 0 C0.66 0.33 1.32 0.66 2 1 C0.97448721 4.07653838 0.19203004 4.80796996 -2 7 C-2.33 7.99 -2.66 8.98 -3 10 C-1.35 10 0.3 10 2 10 C2 10.66 2 11.32 2 12 C-0.97 12 -3.94 12 -7 12 C-5.44298069 7.32894208 -2.91552627 3.91294315 0 0 Z " fill="#7F50DE" transform="translate(136,339)"/>
<path d="M0 0 C2.45453691 3.68180536 3.72299097 7.41018617 5.1875 11.5625 C5.47302734 12.34302734 5.75855469 13.12355469 6.05273438 13.92773438 C6.76316564 15.93111596 7.38825059 17.9643151 8 20 C7.67 20.66 7.34 21.32 7 22 C5 20 5 20 4.5 17.4375 C4.335 16.633125 4.17 15.82875 4 15 C3.34 14.67 2.68 14.34 2 14 C1.62599214 11.67284 1.29235267 9.33882138 1 7 C0.67 6.67 0.34 6.34 0 6 C-0.04080783 4.00041636 -0.04254356 1.99954746 0 0 Z " fill="#8358DE" transform="translate(265,298)"/>
<path d="M0 0 C3.06311603 3.06311603 3.84548091 6.87986581 5.1875 10.9375 C5.47302734 11.76185547 5.75855469 12.58621094 6.05273438 13.43554688 C6.31763672 14.22896484 6.58253906 15.02238281 6.85546875 15.83984375 C7.09934326 16.56550537 7.34321777 17.29116699 7.59448242 18.03881836 C8 20 8 20 7 23 C6.67 21.68 6.34 20.36 6 19 C5.34 19 4.68 19 4 19 C3.896875 17.989375 3.79375 16.97875 3.6875 15.9375 C3.15053318 11.96367099 3.15053318 11.96367099 1.4375 8.375 C0.08305793 5.19500559 -0.30764468 3.38409152 0 0 Z " fill="#8053DE" transform="translate(231,200)"/>
<path d="M0 0 C0.33 0.66 0.66 1.32 1 2 C-0.11375 2.433125 -1.2275 2.86625 -2.375 3.3125 C-6.17512334 4.69911119 -6.17512334 4.69911119 -8 8 C-9.32 7.67 -10.64 7.34 -12 7 C-11.34 6.34 -10.68 5.68 -10 5 C-10.66 4.34 -11.32 3.68 -12 3 C-8.03302114 1.19682779 -4.3177458 0.50797009 0 0 Z " fill="#8B5BE3" transform="translate(171,13)"/>
<path d="M0 0 C0 0.66 0 1.32 0 2 C-3.70416126 4.37590142 -6.92984573 4.20500286 -11.25 4.125 C-12.51328125 4.10695313 -13.7765625 4.08890625 -15.078125 4.0703125 C-16.04234375 4.04710937 -17.0065625 4.02390625 -18 4 C-15.07089056 2.04726038 -12.91867709 1.24603637 -9.5625 0.3125 C-8.61503906 0.04050781 -7.66757813 -0.23148437 -6.69140625 -0.51171875 C-4.01081763 -0.99803744 -2.53712417 -0.89369149 0 0 Z " fill="#9E78E6" transform="translate(191,8)"/>
<path d="M0 0 C0.33 0.99 0.66 1.98 1 3 C0.34 3 -0.32 3 -1 3 C-1 4.98 -1 6.96 -1 9 C-1.66 9 -2.32 9 -3 9 C-3 9.66 -3 10.32 -3 11 C-4.65 11 -6.3 11 -8 11 C-8 10.01 -8 9.02 -8 8 C-7.01 8 -6.02 8 -5 8 C-4.34 6.02 -3.68 4.04 -3 2 C-2.01 2 -1.02 2 0 2 C0 1.34 0 0.68 0 0 Z " fill="#7E41F5" transform="translate(168,340)"/>
<path d="M0 0 C2 2 2 2 2.08203125 3.9609375 C1.31684742 10.81432307 -0.18362273 17.35137377 -2 24 C-2.33 24 -2.66 24 -3 24 C-3.08333357 19.1666528 -2.95261487 14.76307437 -2 10 C-1.34 10 -0.68 10 0 10 C0 6.7 0 3.4 0 0 Z " fill="#9A78DE" transform="translate(495,288)"/>
<path d="M0 0 C4.25209792 4.12324647 8.13635705 8.51282966 12 13 C11.34 13.66 10.68 14.32 10 15 C9.7525 14.360625 9.505 13.72125 9.25 13.0625 C8.8375 12.381875 8.425 11.70125 8 11 C7.360625 10.87367187 6.72125 10.74734375 6.0625 10.6171875 C4 10 4 10 2.734375 8.22265625 C2.40953125 7.50980469 2.0846875 6.79695313 1.75 6.0625 C1.41484375 5.35222656 1.0796875 4.64195313 0.734375 3.91015625 C0 2 0 2 0 0 Z " fill="#9973DF" transform="translate(431,77)"/>
<path d="M0 0 C-0.33 0.99 -0.66 1.98 -1 3 C-1.66 3 -2.32 3 -3 3 C-3.23460937 3.64453125 -3.46921875 4.2890625 -3.7109375 4.953125 C-5 7 -5 7 -7.1640625 7.609375 C-7.97617188 7.65578125 -8.78828125 7.7021875 -9.625 7.75 C-10.44226563 7.80671875 -11.25953125 7.8634375 -12.1015625 7.921875 C-12.72804688 7.94765625 -13.35453125 7.9734375 -14 8 C-11.72402354 5.50447597 -9.39278822 3.93377014 -6.4375 2.3125 C-5.65246094 1.87550781 -4.86742187 1.43851563 -4.05859375 0.98828125 C-2 0 -2 0 0 0 Z " fill="#9C75E1" transform="translate(133,29)"/>
<path d="M0 0 C-0.99 0.33 -1.98 0.66 -3 1 C-0.69 1.66 1.62 2.32 4 3 C4 3.33 4 3.66 4 4 C-2.5705166 4.24794402 -8.56971459 3.32388229 -15 2 C-15 1.67 -15 1.34 -15 1 C-13.25215171 0.63536268 -11.50159498 0.2836922 -9.75 -0.0625 C-8.28820312 -0.35833984 -8.28820312 -0.35833984 -6.796875 -0.66015625 C-4.131881 -0.98397535 -2.51128277 -0.85503199 0 0 Z " fill="#2D145A" transform="translate(153,259)"/>
<path d="M0 0 C3.06311603 3.06311603 3.84548091 6.87986581 5.1875 10.9375 C5.47302734 11.76185547 5.75855469 12.58621094 6.05273438 13.43554688 C6.31763672 14.22896484 6.58253906 15.02238281 6.85546875 15.83984375 C7.09934326 16.56550537 7.34321777 17.29116699 7.59448242 18.03881836 C8 20 8 20 7 23 C3.05301432 15.78654341 0 8.32328425 0 0 Z " fill="#8257DC" transform="translate(239,223)"/>
<path d="M0 0 C4.23429756 1.31061591 8.07407404 2.94356259 12 5 C12 5.33 12 5.66 12 6 C8.7 6.33 5.4 6.66 2 7 C1.34 4.69 0.68 2.38 0 0 Z " fill="#9066E3" transform="translate(355,23)"/>
<path d="M0 0 C3.42724441 5.14086661 3.1015597 10.00797796 3 16 C2.01 15.67 1.02 15.34 0 15 C0 10.05 0 5.1 0 0 Z " fill="#7A4AD7" transform="translate(1,260)"/>
<path d="M0 0 C0.33 0 0.66 0 1 0 C1.66 5.61 2.32 11.22 3 17 C2.34 16.34 1.68 15.68 1 15 C0.01 15.66 -0.98 16.32 -2 17 C-1.34 11.39 -0.68 5.78 0 0 Z " fill="#2F1761" transform="translate(189,208)"/>
<path d="M0 0 C0.33 0 0.66 0 1 0 C1 5.61 1 11.22 1 17 C0.01 17.33 -0.98 17.66 -2 18 C-2.02689216 16.52093108 -2.04634621 15.04172517 -2.0625 13.5625 C-2.07410156 12.73878906 -2.08570313 11.91507813 -2.09765625 11.06640625 C-2 9 -2 9 -1 8 C-0.76924918 6.65252916 -0.58846937 5.29622435 -0.4375 3.9375 C-0.293125 2.638125 -0.14875 1.33875 0 0 Z " fill="#1A161D" transform="translate(189,216)"/>
<path d="M0 0 C0.66 0.33 1.32 0.66 2 1 C0.98408579 6.46864457 -0.07091057 11.76390013 -2 17 C-2.33 17 -2.66 17 -3 17 C-3.09765625 10.84765625 -3.09765625 10.84765625 -3 9 C-2.67 8.67 -2.34 8.34 -2 8 C-1.835 6.845 -1.67 5.69 -1.5 4.5 C-1 1 -1 1 0 0 Z " fill="#936CDE" transform="translate(490,312)"/>
<path d="M0 0 C0.66 0 1.32 0 2 0 C2.49917151 1.96340794 2.99650014 3.92732071 3.48046875 5.89453125 C3.89090617 7.55788291 4.31754024 9.2172376 4.75 10.875 C4.8325 11.57625 4.915 12.2775 5 13 C4.34 13.66 3.68 14.32 3 15 C2.30151736 13.06643218 1.61655186 11.12797702 0.9375 9.1875 C0.55464844 8.10855469 0.17179687 7.02960937 -0.22265625 5.91796875 C-1 3 -1 3 0 0 Z " fill="#9972E1" transform="translate(265,45)"/>
<path d="M0 0 C0.33 0 0.66 0 1 0 C0.47606294 5.86809507 -0.76108858 10.54873741 -3 16 C-3.33 16 -3.66 16 -4 16 C-3.65697965 10.01488629 -3.17692157 5.24882694 0 0 Z " fill="#F1DDFE" transform="translate(146,343)"/>
<path d="M0 0 C5.61774952 5.61774952 6.68177652 13.37854757 7 21 C4.76872275 17.65308412 3.61467238 14.28388372 2.375 10.5 C2.03082031 9.48486328 2.03082031 9.48486328 1.6796875 8.44921875 C0.70703083 5.51387986 0 3.11291919 0 0 Z " fill="#7F55D4" transform="translate(323,214)"/>
<path d="M0 0 C5.94 0.33 11.88 0.66 18 1 C18 1.33 18 1.66 18 2 C11.97403427 3.0712828 6.11090483 3.09945415 0 3 C0 2.01 0 1.02 0 0 Z " fill="#7649CE" transform="translate(269,496)"/>
<path d="M0 0 C2.66666667 1.33333333 5.33333333 2.66666667 8 4 C8 4.66 8 5.32 8 6 C9.32 5.67 10.64 5.34 12 5 C12.33 6.98 12.66 8.96 13 11 C9.54691313 9.48729451 7.04375621 7.45279358 4.25 4.9375 C3.45078125 4.22464844 2.6515625 3.51179688 1.828125 2.77734375 C1.22484375 2.19082031 0.6215625 1.60429687 0 1 C0 0.67 0 0.34 0 0 Z " fill="#7245D5" transform="translate(80,433)"/>
<path d="M0 0 C0.226875 0.61875 0.45375 1.2375 0.6875 1.875 C2.37929835 4.61410209 3.99244161 5.05024472 7 6 C7 6.33 7 6.66 7 7 C6.32453125 6.98839844 5.6490625 6.97679687 4.953125 6.96484375 C4.06109375 6.95582031 3.1690625 6.94679688 2.25 6.9375 C1.36828125 6.92589844 0.4865625 6.91429687 -0.421875 6.90234375 C-2.7818838 6.99173802 -4.74498524 7.33087179 -7 8 C-5.60746468 4.51866169 -4.36823784 3.52113967 -1 2 C-0.67 1.34 -0.34 0.68 0 0 Z " fill="#6839C6" transform="translate(193,356)"/>
<path d="M0 0 C1.125 3.75 1.125 3.75 0 6 C1.65 5.34 3.3 4.68 5 4 C4.04578192 5.14926266 3.08647955 6.29430541 2.125 7.4375 C1.59132812 8.07558594 1.05765625 8.71367187 0.5078125 9.37109375 C-1 11 -1 11 -3 12 C-2.49202991 7.6822542 -1.80317221 3.96697886 0 0 Z " fill="#7144CB" transform="translate(170,348)"/>
<path d="M0 0 C0.33 0 0.66 0 1 0 C1.26666667 8 1.26666667 8 -1 12 C-1.38290462 13.99110401 -1.72604615 15.99100513 -2 18 C-2.33 18 -2.66 18 -3 18 C-2.88566637 15.74943278 -2.75813564 13.49953326 -2.625 11.25 C-2.55539063 9.99703125 -2.48578125 8.7440625 -2.4140625 7.453125 C-2.04676696 4.39001879 -1.60288714 2.58025734 0 0 Z " fill="#9970DC" transform="translate(4,208)"/>
<path d="M0 0 C2.31 0.33 4.62 0.66 7 1 C6.75 2.875 6.75 2.875 6 5 C3.9375 6.25 3.9375 6.25 2 7 C0.5393715 4.35261084 0 3.10551666 0 0 Z " fill="#8E61E7" transform="translate(418,426)"/>
<path d="M0 0 C1.5 1.375 1.5 1.375 3 3 C3 3.66 3 4.32 3 5 C1.68 5 0.36 5 -1 5 C-0.67 5.66 -0.34 6.32 0 7 C2.02463255 7.65213292 2.02463255 7.65213292 4 8 C3 9 3 9 -0.0625 9.0625 C-1.031875 9.041875 -2.00125 9.02125 -3 9 C-2.25 2.25 -2.25 2.25 0 0 Z " fill="#804AE6" transform="translate(225,354)"/>
<path d="M0 0 C-1.20819367 3.624581 -1.80341913 3.40170957 -5 5 C-5.33 5.99 -5.66 6.98 -6 8 C-8.0625 9.6875 -8.0625 9.6875 -10 11 C-10 7 -10 7 -7.6875 4.375 C-2.73684211 0 -2.73684211 0 0 0 Z " fill="#7043CF" transform="translate(209,268)"/>
<path d="M0 0 C0.66 0.33 1.32 0.66 2 1 C1.67 1.598125 1.34 2.19625 1 2.8125 C-0.20787988 5.05386471 -0.20787988 5.05386471 0 8 C-3 9 -3 9 -7 8 C-4.69 5.36 -2.38 2.72 0 0 Z " fill="#8756E5" transform="translate(92,55)"/>
<path d="M0 0 C-0.33 0.66 -0.66 1.32 -1 2 C-4.16015625 2.4140625 -4.16015625 2.4140625 -8.0625 2.625 C-9.35285156 2.69976562 -10.64320312 2.77453125 -11.97265625 2.8515625 C-12.97167969 2.90054687 -13.97070312 2.94953125 -15 3 C-13.34858624 1.03100667 -12.36784958 0.09329518 -9.84375 -0.546875 C-9.0703125 -0.61390625 -8.296875 -0.6809375 -7.5 -0.75 C-6.7265625 -0.82734375 -5.953125 -0.9046875 -5.15625 -0.984375 C-3 -1 -3 -1 0 0 Z " fill="#7F52DD" transform="translate(127,349)"/>
<path d="M0 0 C0.66 0 1.32 0 2 0 C2 1.65 2 3.3 2 5 C1.34 5 0.68 5 0 5 C0 6.32 0 7.64 0 9 C-0.66 9 -1.32 9 -2 9 C-2 10.65 -2 12.3 -2 14 C-2.66 14 -3.32 14 -4 14 C-3.00956295 9.16371695 -2.04301154 4.52381127 0 0 Z " fill="#A381E0" transform="translate(15,162)"/>
<path d="M0 0 C1.27609323 0.90933009 2.54565553 1.82782853 3.8125 2.75 C4.87404297 3.51570313 4.87404297 3.51570313 5.95703125 4.296875 C8.02977691 6.02482358 9.47375854 7.78526476 11 10 C9.68 10 8.36 10 7 10 C7 9.34 7 8.68 7 8 C6.34 8 5.68 8 5 8 C5 7.34 5 6.68 5 6 C4.360625 5.7525 3.72125 5.505 3.0625 5.25 C1 4 1 4 0.37109375 1.921875 C0.24863281 1.28765625 0.12617188 0.6534375 0 0 Z " fill="#A27EDE" transform="translate(416,63)"/>
<path d="M0 0 C0.66 0.33 1.32 0.66 2 1 C2.484375 2.9609375 2.484375 2.9609375 2.75 5.375 C2.89695312 6.56222656 2.89695312 6.56222656 3.046875 7.7734375 C3 10 3 10 1 13 C0.01 9.37 -0.98 5.74 -2 2 C-1.34 2 -0.68 2 0 2 C0 1.34 0 0.68 0 0 Z " fill="#8F62E1" transform="translate(271,58)"/>
<path d="M0 0 C-2.475 4.455 -2.475 4.455 -5 9 C-6 6 -6 6 -5 3 C-5.66 3 -6.32 3 -7 3 C-7 2.34 -7 1.68 -7 1 C-5 0 -5 0 0 0 Z " fill="#8F62E2" transform="translate(465,378)"/>
<path d="M0 0 C0.66 0 1.32 0 2 0 C0.78065514 4.03321763 -0.55954927 7.54269479 -3 11 C-3.66 11 -4.32 11 -5 11 C-4.54917531 9.53932801 -4.08906463 8.08151968 -3.625 6.625 C-3.36976562 5.81289063 -3.11453125 5.00078125 -2.8515625 4.1640625 C-2 2 -2 2 0 0 Z " fill="#F3DAFE" transform="translate(116,368)"/>
<path d="M0 0 C0.99 0 1.98 0 3 0 C2.34 1.98 1.68 3.96 1 6 C1.99 6.33 2.98 6.66 4 7 C1 9 1 9 -1.1875 8.625 C-1.785625 8.41875 -2.38375 8.2125 -3 8 C-1.125 2.25 -1.125 2.25 0 0 Z " fill="#E7CFFD" transform="translate(153,342)"/>
<path d="M0 0 C0.99 0.99 1.98 1.98 3 3 C3.33 3 3.66 3 4 3 C3.67 6.3 3.34 9.6 3 13 C2.34 13 1.68 13 1 13 C0.67 8.71 0.34 4.42 0 0 Z " fill="#261245" transform="translate(187,295)"/>
<path d="M0 0 C0 0.66 0 1.32 0 2 C2.97 2 5.94 2 9 2 C9 2.33 9 2.66 9 3 C2.73 3 -3.54 3 -10 3 C-6.64781163 0.76520776 -4.01177204 0 0 0 Z " fill="#8C55F2" transform="translate(239,497)"/>
<path d="M0 0 C-3.36423277 2.96052484 -6.69159287 3.92289822 -11 5 C-11 4.34 -11 3.68 -11 3 C-10.34 2.67 -9.68 2.34 -9 2 C-9 1.34 -9 0.68 -9 0 C-5.67465243 -1.10844919 -3.37817425 -0.84454356 0 0 Z " fill="#9A71E1" transform="translate(361,474)"/>
<path d="M0 0 C0.66 0.33 1.32 0.66 2 1 C1.01 2.485 1.01 2.485 0 4 C0.66 4 1.32 4 2 4 C2 4.66 2 5.32 2 6 C-1.63 6 -5.26 6 -9 6 C-6.59027489 3.59027489 -4.04587368 2.49053393 -1 1 C-0.67 0.67 -0.34 0.34 0 0 Z " fill="#F2DEFE" transform="translate(268,359)"/>
<path d="M0 0 C2 1 2 1 2.6328125 2.84765625 C2.79523438 3.57855469 2.95765625 4.30945313 3.125 5.0625 C3.29257813 5.79597656 3.46015625 6.52945312 3.6328125 7.28515625 C3.75398437 7.85105469 3.87515625 8.41695313 4 9 C2.02 9 0.04 9 -2 9 C-1.34 6.03 -0.68 3.06 0 0 Z " fill="#7241D9" transform="translate(181,279)"/>
<path d="M0 0 C0.56638908 4.81430721 -1.17438373 7.20307814 -4 11 C-5.11651815 7.65044556 -4.99822121 6.32740404 -4 3 C-1.51724138 0 -1.51724138 0 0 0 Z " fill="#7442D6" transform="translate(184,234)"/>
<path d="M0 0 C0.99 0 1.98 0 3 0 C3.33 0.99 3.66 1.98 4 3 C1.82575883 5.50037734 0.26954202 6.43628586 -3 7 C-3 6.01 -3 5.02 -3 4 C-2.34 4 -1.68 4 -1 4 C-0.67 2.68 -0.34 1.36 0 0 Z " fill="#9063E2" transform="translate(364,467)"/>
<path d="M0 0 C3.25543229 0.34879632 4.01873107 1.02133261 6.25 3.5625 C6.8275 4.366875 7.405 5.17125 8 6 C7.34 7.32 6.68 8.64 6 10 C4.99723227 8.52270825 3.99785546 7.04311423 3 5.5625 C2.443125 4.73878906 1.88625 3.91507812 1.3125 3.06640625 C0 1 0 1 0 0 Z " fill="#7445D5" transform="translate(38,383)"/>
<path d="M0 0 C0 0.33 0 0.66 0 1 C-2.31 1 -4.62 1 -7 1 C-5.68 2.98 -4.36 4.96 -3 7 C-3.33 7.66 -3.66 8.32 -4 9 C-5.00593243 7.8803014 -6.0045849 6.7540588 -7 5.625 C-7.556875 4.99851562 -8.11375 4.37203125 -8.6875 3.7265625 C-10 2 -10 2 -10 0 C-6.42355152 -1.2380014 -3.66305234 -0.74926071 0 0 Z " fill="#D4ACFD" transform="translate(121,352)"/>
<path d="M0 0 C3 2 3 2 3.51171875 3.9453125 C3.67447917 5.96354167 3.83723958 7.98177083 4 10 C3.01 10 2.02 10 1 10 C0.67 6.7 0.34 3.4 0 0 Z " fill="#8F66DC" transform="translate(9,314)"/>
<path d="M0 0 C0.33 0 0.66 0 1 0 C1 4.29 1 8.58 1 13 C0.34 13 -0.32 13 -1 13 C-1.33 13.66 -1.66 14.32 -2 15 C-1.85879286 13.06215735 -1.71187127 11.12473045 -1.5625 9.1875 C-1.48128906 8.10855469 -1.40007812 7.02960938 -1.31640625 5.91796875 C-1 3 -1 3 0 0 Z " fill="#6E42C7" transform="translate(192,293)"/>
<path d="M0 0 C0.33 0 0.66 0 1 0 C1 2.97 1 5.94 1 9 C0.34 9 -0.32 9 -1 9 C-1.144375 9.763125 -1.28875 10.52625 -1.4375 11.3125 C-2 14 -2 14 -3 17 C-3.66 17 -4.32 17 -5 17 C-4.80664062 16.35933594 -4.61328125 15.71867188 -4.4140625 15.05859375 C-2.9059252 10.04889015 -1.42282214 5.03460143 0 0 Z " fill="#271544" transform="translate(186,227)"/>
<path d="M0 0 C-0.28359887 1.4391134 -0.57721399 2.87625518 -0.875 4.3125 C-1.11863281 5.51326172 -1.11863281 5.51326172 -1.3671875 6.73828125 C-2 9 -2 9 -4 12 C-4.24954005 10.56589632 -4.47392642 9.12739928 -4.6875 7.6875 C-4.81511719 6.88699219 -4.94273437 6.08648437 -5.07421875 5.26171875 C-5 3 -5 3 -3.64453125 1.20703125 C-2 0 -2 0 0 0 Z " fill="#7E4DE4" transform="translate(225,144)"/>
<path d="M0 0 C-3.48152976 2.32101984 -5.86169011 2.69903201 -10 3 C-10.66 2.34 -11.32 1.68 -12 1 C-7.58774263 -0.47075246 -4.51718381 -1.36884358 0 0 Z " fill="#9670E4" transform="translate(316,491)"/>
<path d="M0 0 C1.93627769 -0.10807131 3.87427756 -0.1856225 5.8125 -0.25 C7.43091797 -0.31960938 7.43091797 -0.31960938 9.08203125 -0.390625 C12 0 12 0 13.88671875 2.015625 C14.25410156 2.67046875 14.62148437 3.3253125 15 4 C9.76119922 3.44854729 5.02649303 2.57077907 0 1 C0 0.67 0 0.34 0 0 Z " fill="#7244D0" transform="translate(181,490)"/>
<path d="M0 0 C1.32 0 2.64 0 4 0 C6.57719777 2.57719777 7 3.32379932 7 7 C5.02 7.99 5.02 7.99 3 9 C3.33 7.35 3.66 5.7 4 4 C2.68 3.67 1.36 3.34 0 3 C0 2.01 0 1.02 0 0 Z " fill="#AD7DFA" transform="translate(215,359)"/>
<path d="M0 0 C0.66 0 1.32 0 2 0 C1.71640113 1.4391134 1.42278601 2.87625518 1.125 4.3125 C0.96257812 5.11300781 0.80015625 5.91351563 0.6328125 6.73828125 C0 9 0 9 -2 12 C-1.67 9.69 -1.34 7.38 -1 5 C-2.32 4.67 -3.64 4.34 -5 4 C-5 3.67 -5 3.34 -5 3 C-3.35 3 -1.7 3 0 3 C0 2.01 0 1.02 0 0 Z " fill="#7F4EDC" transform="translate(141,350)"/>
<path d="M0 0 C2.78211944 0.37596209 4.5879284 0.67318459 6.8125 2.4375 C8 4 8 4 8 6 C9.65 6 11.3 6 13 6 C11.02 6.99 11.02 6.99 9 8 C7.68388323 7.04663979 6.37221039 6.08714226 5.0625 5.125 C4.33160156 4.59132812 3.60070312 4.05765625 2.84765625 3.5078125 C1 2 1 2 0 0 Z " fill="#7044CF" transform="translate(200,246)"/>
<path d="M0 0 C1.16691444 3.48419134 0.85285758 6.10222787 0.1875 9.6875 C0.01605469 10.66074219 -0.15539062 11.63398438 -0.33203125 12.63671875 C-0.55246094 13.41660156 -0.77289063 14.19648438 -1 15 C-1.99 15.495 -1.99 15.495 -3 16 C-2.52013969 10.43109483 -1.70084819 5.32932432 0 0 Z " fill="#A88AE1" transform="translate(8,184)"/>
<path d="M0 0 C1.60568666 0.28317926 3.20952047 0.57687791 4.8125 0.875 C6.15248047 1.11863281 6.15248047 1.11863281 7.51953125 1.3671875 C10 2 10 2 13 4 C11.58376784 4.05447047 10.16691809 4.09300508 8.75 4.125 C7.96109375 4.14820313 7.1721875 4.17140625 6.359375 4.1953125 C3.79268059 3.9828378 2.2083933 3.28654105 0 2 C0 1.34 0 0.68 0 0 Z " fill="#A17DE2" transform="translate(317,9)"/>
<path d="M0 0 C2.97 0 5.94 0 9 0 C9.33 0.99 9.66 1.98 10 3 C9.67 3.66 9.34 4.32 9 5 C4.89198233 3.81323934 3.10551666 3.10551666 0 0 Z " fill="#7544DD" transform="translate(125,466)"/>
<path d="M0 0 C-1.1196986 1.00593243 -2.2459412 2.0045849 -3.375 3 C-4.00148438 3.556875 -4.62796875 4.11375 -5.2734375 4.6875 C-7 6 -7 6 -9 6 C-8.8125 4.1875 -8.8125 4.1875 -8 2 C-3.744 -1.248 -3.744 -1.248 0 0 Z " fill="#9A78DB" transform="translate(410,443)"/>
<path d="M0 0 C-3.49087093 4.0042343 -5.64951939 5.62671065 -11 6 C-11 5.34 -11 4.68 -11 4 C-7.37287308 0.37287308 -5.09424101 -0.47388288 0 0 Z " fill="#7D45E9" transform="translate(84,69)"/>
<path d="M0 0 C1.65 0.33 3.3 0.66 5 1 C2.14693203 3.32472205 -0.54074837 4.7508258 -4 6 C-4 4.68 -4 3.36 -4 2 C-2.68 2 -1.36 2 0 2 C0 1.34 0 0.68 0 0 Z " fill="#986FE6" transform="translate(371,465)"/>
<path d="M0 0 C-1.49097658 3.7952131 -3.75700849 5.61042731 -7 8 C-7.66 7.34 -8.32 6.68 -9 6 C-8.01 6 -7.02 6 -6 6 C-5.67 4.35 -5.34 2.7 -5 1 C-2 0 -2 0 0 0 Z " fill="#9A72DD" transform="translate(418,434)"/>
<path d="M0 0 C0.99 0.33 1.98 0.66 3 1 C3.33 1.99 3.66 2.98 4 4 C4.66 4.33 5.32 4.66 6 5 C6.625 7.5625 6.625 7.5625 7 10 C6.01 10.495 6.01 10.495 5 11 C4.16151196 9.54462432 3.32936066 8.08559627 2.5 6.625 C1.80390625 5.40683594 1.80390625 5.40683594 1.09375 4.1640625 C0 2 0 2 0 0 Z " fill="#9971E2" transform="translate(29,367)"/>
<path d="M0 0 C0.66 0 1.32 0 2 0 C1.01 4.62 0.02 9.24 -1 14 C-1.33 14 -1.66 14 -2 14 C-2.3690205 4.58997722 -2.3690205 4.58997722 0 0 Z " fill="#24133D" transform="translate(193,282)"/>
<path d="M0 0 C0.99 0 1.98 0 3 0 C4.59138085 4.17737474 5.21278058 7.53160785 5 12 C2.65085508 9.65085508 2.26859643 8.04320554 1.375 4.875 C1.11460937 3.96492187 0.85421875 3.05484375 0.5859375 2.1171875 C0.39257812 1.41851562 0.19921875 0.71984375 0 0 Z " fill="#7C4FD7" transform="translate(332,242)"/>
<path d="M0 0 C0.33 0.66 0.66 1.32 1 2 C1.66 2 2.32 2 3 2 C3 1.34 3 0.68 3 0 C3.66 0 4.32 0 5 0 C4.25 2.4375 4.25 2.4375 3 5 C0.875 5.8125 0.875 5.8125 -1 6 C-1.042721 4.33388095 -1.04063832 2.66617115 -1 1 C-0.67 0.67 -0.34 0.34 0 0 Z " fill="#8A5CE0" transform="translate(449,394)"/>
<path d="M0 0 C-0.6875 2.875 -0.6875 2.875 -2 6 C-4.625 7.375 -4.625 7.375 -7 8 C-4.18918919 0 -4.18918919 0 0 0 Z " fill="#EFD7FE" transform="translate(203,344)"/>
<path d="M0 0 C2.475 0.99 2.475 0.99 5 2 C4.01 4.31 3.02 6.62 2 9 C0.79371992 6.66785852 -0.1654738 4.50357861 -1 2 C-0.67 1.34 -0.34 0.68 0 0 Z " fill="#20172E" transform="translate(194,273)"/>
<path d="M0 0 C2.31 0.33 4.62 0.66 7 1 C2.49667324 4.00221784 -1.57767579 5.31896025 -7 5 C-4.35261084 3.5393715 -3.10551666 3 0 3 C0 2.01 0 1.02 0 0 Z " fill="#7646D5" transform="translate(162,252)"/>
<path d="M0 0 C0.66 0 1.32 0 2 0 C1.55005243 1.79379098 1.08975857 3.58498928 0.625 5.375 C0.36976563 6.37273437 0.11453125 7.37046875 -0.1484375 8.3984375 C-1 11 -1 11 -3 13 C-3 10.03 -3 7.06 -3 4 C-2.01 4 -1.02 4 0 4 C0 2.68 0 1.36 0 0 Z " fill="#7E50DF" transform="translate(211,178)"/>
<path d="M0 0 C0.99 0.33 1.98 0.66 3 1 C3 1.66 3 2.32 3 3 C3.66 3.33 4.32 3.66 5 4 C3.02 4.33 1.04 4.66 -1 5 C-1.33 3.68 -1.66 2.36 -2 1 C-1.34 0.67 -0.68 0.34 0 0 Z " fill="#7844E2" transform="translate(301,490)"/>
<path d="M0 0 C0.5775 0.165 1.155 0.33 1.75 0.5 C4.26664369 1.14462031 4.26664369 1.14462031 8 1 C8.66 2.32 9.32 3.64 10 5 C5.2482602 4.56802365 3.07999946 3.67230705 0 0 Z " fill="#7742E6" transform="translate(98,448)"/>
<path d="M0 0 C1.98 0.495 1.98 0.495 4 1 C3.34 2.98 2.68 4.96 2 7 C1.67 6.01 1.34 5.02 1 4 C0.34 4 -0.32 4 -1 4 C-0.67 2.68 -0.34 1.36 0 0 Z " fill="#8859E5" transform="translate(483,329)"/>
<path d="M0 0 C7.42857143 -0.28571429 7.42857143 -0.28571429 11 2 C8.20129973 3.39935013 6.09501208 3.25265405 3 3 C1.125 1.5 1.125 1.5 0 0 Z " fill="#351664" transform="translate(229,259)"/>
<path d="M0 0 C0.33 0.99 0.66 1.98 1 3 C1.66 3 2.32 3 3 3 C3 3.99 3 4.98 3 6 C1.02 6.66 -0.96 7.32 -3 8 C-1.125 1.125 -1.125 1.125 0 0 Z " fill="#8858E6" transform="translate(49,100)"/>
<path d="M0 0 C0.33 0.66 0.66 1.32 1 2 C2.65 1.34 4.3 0.68 6 0 C5.3125 1.9375 5.3125 1.9375 4 4 C1.5 4.875 1.5 4.875 -1 5 C-1.66 4.34 -2.32 3.68 -3 3 C-2.01 2.01 -1.02 1.02 0 0 Z " fill="#8C5CEE" transform="translate(64,82)"/>
<path d="M0 0 C0.99 0.33 1.98 0.66 3 1 C2.34 3.97 1.68 6.94 1 10 C0.34 8.68 -0.32 7.36 -1 6 C-0.125 3.75 -0.125 3.75 1 2 C0.34 1.67 -0.32 1.34 -1 1 C-0.67 0.67 -0.34 0.34 0 0 Z " fill="#341269" transform="translate(180,348)"/>
<path d="M0 0 C0.66 0 1.32 0 2 0 C2 0.66 2 1.32 2 2 C2.99 2 3.98 2 5 2 C5 4.64 5 7.28 5 10 C2.35534962 6.8745041 1.15585285 3.91211733 0 0 Z " fill="#7C44EA" transform="translate(367,338)"/>
<path d="M0 0 C2.95183101 2.95183101 3.08663988 5.95511947 4 10 C3.01 9.67 2.02 9.34 1 9 C-0.4783226 6.04335481 -0.06032783 3.25770263 0 0 Z " fill="#F0E0FC" transform="translate(331,241)"/>
<path d="M0 0 C1.32 0.66 2.64 1.32 4 2 C4 2.66 4 3.32 4 4 C2.02 4.99 2.02 4.99 0 6 C-0.99 5.01 -1.98 4.02 -3 3 C-2.01 2.01 -1.02 1.02 0 0 Z " fill="#9866EE" transform="translate(72,73)"/>
<path d="M0 0 C0.66 0.33 1.32 0.66 2 1 C-0.25 3.5625 -0.25 3.5625 -3 6 C-4.32 5.67 -5.64 5.34 -7 5 C-4.69 3.35 -2.38 1.7 0 0 Z " fill="#9F7AE2" transform="translate(117,37)"/>
<path d="M0 0 C0.99 0.33 1.98 0.66 3 1 C3 1.66 3 2.32 3 3 C4.98 2.34 6.96 1.68 9 1 C8.67 1.99 8.34 2.98 8 4 C5.36 4 2.72 4 0 4 C0 2.68 0 1.36 0 0 Z " fill="#7A41E8" transform="translate(107,377)"/>
<path d="M0 0 C0.33 0.99 0.66 1.98 1 3 C0.67 3.66 0.34 4.32 0 5 C0.66 5.33 1.32 5.66 2 6 C0.68 6.99 -0.64 7.98 -2 9 C-2.66 8.67 -3.32 8.34 -4 8 C-2.68 5.36 -1.36 2.72 0 0 Z " fill="#8157D9" transform="translate(157,340)"/>
<path d="M0 0 C2.64 0.33 5.28 0.66 8 1 C5.64046906 3.35953094 4.22104383 3.49141413 1 4 C0.67 2.68 0.34 1.36 0 0 Z " fill="#7C49E6" transform="translate(258,360)"/>
<path d="M0 0 C0.66 0 1.32 0 2 0 C2 0.99 2 1.98 2 3 C2.99 2.67 3.98 2.34 5 2 C5.33 3.65 5.66 5.3 6 7 C3.5625 6.3125 3.5625 6.3125 1 5 C0.1875 2.375 0.1875 2.375 0 0 Z " fill="#9165E5" transform="translate(21,350)"/>
<path d="M0 0 C2.1385485 2.1385485 2.42655063 3.13275314 3 6 C0.03 5.505 0.03 5.505 -3 5 C-1.125 1.125 -1.125 1.125 0 0 Z " fill="#814EEE" transform="translate(157,348)"/>
<path d="M0 0 C2.25 0.25 2.25 0.25 4 1 C2.35 2.65 0.7 4.3 -1 6 C-1.99 5.34 -2.98 4.68 -4 4 C-2.25 1.9375 -2.25 1.9375 0 0 Z " fill="#EACDFE" transform="translate(165,326)"/>
<path d="M0 0 C0.66 0 1.32 0 2 0 C2.66 2.64 3.32 5.28 4 8 C3.01 8.495 3.01 8.495 2 9 C0.50178941 5.62902617 0 3.79557881 0 0 Z " fill="#966CDD" transform="translate(480,154)"/>
<path d="M0 0 C1.4606285 2.64738916 2 3.89448334 2 7 C-0.97 6.505 -0.97 6.505 -4 6 C-2.68 4.02 -1.36 2.04 0 0 Z " fill="#8F62E3" transform="translate(60,86)"/>
<path d="M0 0 C0.99 0 1.98 0 3 0 C2.01 3.3 1.02 6.6 0 10 C-1.00000429 5.99998285 -0.80688405 3.94476647 0 0 Z " fill="#9E78DE" transform="translate(257,50)"/>
<path d="M0 0 C6.75 0.75 6.75 0.75 9 3 C5.71023192 4.09658936 4.28696233 3.79953138 1 3 C0.67 2.01 0.34 1.02 0 0 Z " fill="#956FDF" transform="translate(346,20)"/>
<path d="M0 0 C0.598125 0.165 1.19625 0.33 1.8125 0.5 C4.11344336 1.1114124 4.11344336 1.1114124 7 1 C7.33 2.32 7.66 3.64 8 5 C4.62496331 3.8141763 2.35277269 2.72426311 0 0 Z " fill="#7245D9" transform="translate(112,458)"/>
<path d="M0 0 C-0.33 0.99 -0.66 1.98 -1 3 C-3.5625 4.1875 -3.5625 4.1875 -6 5 C-6 3.68 -6 2.36 -6 1 C-3 0 -3 0 0 0 Z " fill="#9168E0" transform="translate(400,449)"/>
<path d="M0 0 C0.99 0 1.98 0 3 0 C1.25 5.75 1.25 5.75 -1 8 C-1.125 2.25 -1.125 2.25 0 0 Z " fill="#9B73DE" transform="translate(471,361)"/>
<path d="M0 0 C0.66 0 1.32 0 2 0 C2.33 2.97 2.66 5.94 3 9 C2.34 9 1.68 9 1 9 C0.855625 8.236875 0.71125 7.47375 0.5625 6.6875 C0.0367406 3.91827092 0.0367406 3.91827092 -1 1 C-0.67 0.67 -0.34 0.34 0 0 Z " fill="#7A44E5" transform="translate(28,358)"/>
<path d="M0 0 C0.99 0.33 1.98 0.66 3 1 C3 3.31 3 5.62 3 8 C0 6 0 6 -0.75 3.4375 C-0.8325 2.633125 -0.915 1.82875 -1 1 C-0.67 0.67 -0.34 0.34 0 0 Z " fill="#7B49DB" transform="translate(373,347)"/>
<path d="M0 0 C1.32 0.33 2.64 0.66 4 1 C2.02 3.97 2.02 3.97 0 7 C-0.66 5.68 -1.32 4.36 -2 3 C-1.34 2.01 -0.68 1.02 0 0 Z " fill="#804DE6" transform="translate(131,338)"/>
<path d="M0 0 C1.32 0.33 2.64 0.66 4 1 C3.71890887 2.64767247 3.42481474 4.29313145 3.125 5.9375 C2.96257812 6.85402344 2.80015625 7.77054687 2.6328125 8.71484375 C2.42398438 9.46894531 2.21515625 10.22304688 2 11 C1.01 11.495 1.01 11.495 0 12 C0.08378906 11.30132812 0.16757813 10.60265625 0.25390625 9.8828125 C0.35574219 8.97273438 0.45757812 8.06265625 0.5625 7.125 C0.66691406 6.22007812 0.77132812 5.31515625 0.87890625 4.3828125 C1.19674852 1.98346943 1.19674852 1.98346943 0 0 Z " fill="#8C5BE5" transform="translate(168,326)"/>
<path d="M0 0 C0.33 0.66 0.66 1.32 1 2 C1.66 2 2.32 2 3 2 C3.625 3.875 3.625 3.875 4 6 C3.34 6.66 2.68 7.32 2 8 C0.4375 6.8125 0.4375 6.8125 -1 5 C-0.6875 2.3125 -0.6875 2.3125 0 0 Z " fill="#9362EC" transform="translate(20,149)"/>
<path d="M0 0 C0.99 0.33 1.98 0.66 3 1 C2.67 2.65 2.34 4.3 2 6 C1.01 5.34 0.02 4.68 -1 4 C-0.67 2.68 -0.34 1.36 0 0 Z " fill="#814BEA" transform="translate(417,429)"/>
<path d="M0 0 C0.33 0 0.66 0 1 0 C1 3.3 1 6.6 1 10 C0.01 10.33 -0.98 10.66 -2 11 C-1.34 7.37 -0.68 3.74 0 0 Z " fill="#F5E7FE" transform="translate(278,338)"/>
<path d="M0 0 C1.32 1.32 2.64 2.64 4 4 C3.67 4.66 3.34 5.32 3 6 C1.68 6 0.36 6 -1 6 C-1.66 5.34 -2.32 4.68 -3 4 C-2.01 3.34 -1.02 2.68 0 2 C0 1.34 0 0.68 0 0 Z " fill="#9A6CE8" transform="translate(453,104)"/>
<path d="M0 0 C0.66 0 1.32 0 2 0 C1.34 2.97 0.68 5.94 0 9 C-0.33 9 -0.66 9 -1 9 C-1.09765625 2.84765625 -1.09765625 2.84765625 -1 1 C-0.67 0.67 -0.34 0.34 0 0 Z " fill="#9B71DC" transform="translate(254,60)"/>
<path d="M0 0 C0.66 0.33 1.32 0.66 2 1 C0.84826645 3.46800047 -0.04783565 5.04783565 -2 7 C-2.6875 5.1875 -2.6875 5.1875 -3 3 C-1.5625 1.25 -1.5625 1.25 0 0 Z " fill="#A07CE7" transform="translate(262,42)"/>
</svg>
