<?xml version="1.0" encoding="utf-8"?>
<!-- Generator: Adobe Illustrator 23.1.1, SVG Export Plug-In . SVG Version: 6.00 Build 0)  -->
<svg version="1.1" id="Layer_1" xmlns="http://www.w3.org/2000/svg" xmlns:xlink="http://www.w3.org/1999/xlink" x="0px" y="0px"
	 viewBox="0 0 50 50" style="enable-background:new 0 0 50 50;" xml:space="preserve">
<style type="text/css">
	.st0{fill:#696969;}
</style>
<path class="st0" d="M22.6,32.4l0.1,0.1c0,0-0.1,0-0.3-0.1h-2.6c-3.1,0-5.7-2.1-6.4-5.1c-0.8-3.3,1.1-6.6,4.4-7.6
	c2.5-0.7,4.6-0.2,6.5,1.5c1,0.9,1.9,1.9,2.8,2.8c0.3,0.2,0.3,0.6,0.2,0.9c-0.2,0.4-0.4,0.5-0.8,0.6c-0.3,0-0.5-0.1-0.7-0.3
	c-0.8-0.8-1.7-1.7-2.6-2.6c-0.7-0.7-1.6-1.1-2.6-1.3c-2.2-0.3-4.4,0.9-5.2,3c-1,2.6,0.6,5.6,3.4,6.2c0.6,0.1,1.1,0.1,1.7,0.1
	c0.2,0,0.3,0.1,0.4,0.2C21.5,31.3,22,31.9,22.6,32.4z"/>
<path class="st0" d="M36.4,23c0.2,0.9,0.2,1.7,0.1,2.6c-0.2,1.5-0.8,2.8-1.8,4c-1.2,1.4-2.7,2.3-4.5,2.7c-1,0.2-1.9,0.2-2.9,0.1
	c-1.2-0.2-2.4-0.6-3.4-1.3c-0.3-0.2-0.6-0.4-0.8-0.6c-1.3-1.4-2.7-2.8-4.1-4.1c-0.3-0.3-0.4-0.7-0.2-1c0.2-0.3,0.6-0.6,1-0.5
	c0.2,0,0.4,0.1,0.6,0.3c1.2,1.2,2.5,2.5,3.7,3.7c1,0.9,2.1,1.5,3.5,1.7c2.1,0.3,4-0.4,5.5-2c0.8-0.8,1.3-1.9,1.5-3.1
	c0.3-1.8-0.1-3.4-1.2-4.8c-0.9-1.2-2.2-2-3.8-2.3c-1.6-0.3-3.1,0-4.5,0.9H25c-0.5-0.4-1-0.7-1.6-1c0.4-0.3,0.9-0.7,1.3-0.8
	c1-0.5,1.9-0.8,3-0.9c2.8-0.2,5.1,0.7,6.9,2.7C35.5,20.4,36.1,21.6,36.4,23z"/>
<path class="st0" d="M39.6,6.2H10.4c-2.3,0-4.2,1.9-4.2,4.2v29.2c0,2.3,1.9,4.2,4.2,4.2h29.2c2.3,0,4.2-1.9,4.2-4.2V10.4
	C43.8,8.1,41.9,6.2,39.6,6.2z M38.5,25c0,0.4-0.1,0.8-0.1,1.2c-0.2,1.2-0.7,2.4-1.3,3.5c-1,1.6-2.4,2.9-4.1,3.7
	c-1,0.5-2.1,0.8-3.2,0.9c-0.2,0-0.5,0.1-0.7,0.1h-9.6c-1-0.1-1.9-0.3-2.8-0.7c-1.9-0.8-3.3-2.2-4.3-4c-0.4-0.8-0.7-1.7-0.8-2.6
	c0-0.2-0.1-0.4-0.1-0.7v-1c0.1-0.8,0.2-1.6,0.5-2.4c0.8-2.1,2.2-3.6,4.2-4.6c1-0.5,2.1-0.8,3.3-0.8c0.6,0,1.1,0,1.7,0.1
	c0.1,0,0.1,0,0.2-0.1c0.8-0.8,1.7-1.5,2.8-2c1-0.5,2.1-0.8,3.2-0.9c0.3,0,0.5-0.1,0.8-0.1H29c0.1,0,0.1,0,0.2,0
	c0.4,0,0.8,0.1,1.2,0.1c1.2,0.2,2.4,0.6,3.5,1.3c1.6,1,2.9,2.4,3.7,4.1c0.5,1,0.8,2.1,0.9,3.1C38.5,23.2,38.5,25,38.5,25z"/>
</svg>
